<svg xmlns="http://www.w3.org/2000/svg" fill="#4EAA25" viewBox="0 0 24 24" xmlns:v="https://vecta.io/nano"><path d="M21.038 4.9L13.46.402a2.86 2.86 0 0 0-2.923.001L2.96 4.9A3.023 3.023 0 0 0 1.5 7.503v8.995c0 1.073.557 2.066 1.462 2.603l7.577 4.497a2.86 2.86 0 0 0 2.922 0l7.577-4.497a3.023 3.023 0 0 0 1.462-2.603V7.503A3.021 3.021 0 0 0 21.038 4.9zM15.17 18.946l.013.646c.001.078-.05.167-.11.198l-.383.22c-.06.03-.11-.007-.112-.085l-.007-.635c-.328.136-.66.17-.872.084-.04-.016-.057-.075-.04-.142l.14-.584a.24.24 0 0 1 .069-.121.163.163 0 0 1 .036-.026c.022-.01.043-.014.062-.006.23.077.52.04.802-.1.357-.18.596-.545.592-.907-.003-.328-.18-.465-.613-.468-.55.001-1.064-.107-1.072-.917-.007-.667.34-1.36.89-1.8l-.007-.652c-.001-.08.048-.168.11-.2l.37-.236c.06-.03.11.007.112.087l.006.653c.273-.11.51-.138.726-.088.047.012.067.076.048.15l-.144.578a.255.255 0 0 1-.065.116.161.161 0 0 1-.038.028.083.083 0 0 1-.057.009c-.098-.022-.332-.073-.7.113-.385.195-.52.53-.517.778.003.297.155.387.68.396.7.012 1.003.318 1 1.023.007.69-.362 1.433-.928 1.888zm3.973-1.087c0 .06-.008.116-.058.145l-1.916 1.164c-.05.03-.1.004-.1-.056v-.494c0-.06.037-.093.087-.122l1.887-1.13c.05-.03.1-.004.1.056v.436zM20.46 6.797l-7.168 4.427c-.894.523-1.553 1.11-1.553 2.187v8.833c0 .645.26 1.063.66 1.184a2.304 2.304 0 0 1-.398.039c-.42 0-.833-.114-1.197-.33L3.226 18.64a2.494 2.494 0 0 1-1.201-2.142V7.503c0-.88.46-1.702 1.2-2.142L10.803.863a2.342 2.342 0 0 1 2.394 0l7.577 4.498a2.479 2.479 0 0 1 1.164 1.732c-.252-.536-.818-.682-1.48-.296z"/></svg>