<?xml version="1.0" encoding="UTF-8" standalone="no"?>
<!DOCTYPE svg PUBLIC "-//W3C//DTD SVG 1.1//EN" "http://www.w3.org/Graphics/SVG/1.1/DTD/svg11.dtd">
<svg version="1.1" xmlns="http://www.w3.org/2000/svg" xmlns:xlink="http://www.w3.org/1999/xlink" preserveAspectRatio="xMidYMid meet" viewBox="0 0 640 640" width="640" height="640"><defs><path d="M-3.45 0L164.48 0L164.48 167.03L-3.45 167.03L-3.45 0Z" id="j3cs67Qgak"></path><path d="M227.84 220.97C227.84 221 227.84 221.15 227.84 221.43C228.15 221.43 228.32 221.43 228.35 221.43C230.39 225.06 233.96 227.55 236.51 230.73C238.56 234.36 240.34 237.99 242.38 241.62C242.64 241.39 242.89 241.16 242.89 241.16C246.47 238.89 248.25 235.27 248.25 229.82C246.72 228.23 246.47 226.64 245.19 225.06C243.66 222.79 240.34 221.65 238.3 219.84C233.96 219.84 230.9 220.29 227.84 220.97Z" id="b4n9h2DbwO"></path><path d="M504.57 507.41C498.04 510.07 487.6 510.08 486.73 518.5C490.21 522.05 490.64 527.81 493.69 532.69C498.92 541.56 508.05 553.53 516.33 559.74C525.46 566.84 534.61 573.93 544.18 580.14C561.16 590.78 580.31 596.99 596.85 607.63C606.43 613.83 616 621.82 625.58 628.47C630.37 632.01 633.41 637.79 639.51 640C639.51 639.87 639.51 638.81 639.51 638.67C636.46 634.68 635.59 628.92 632.55 624.48C628.2 620.05 623.84 616.05 619.49 611.62C606.86 594.33 591.19 579.25 574.22 566.84C560.29 557.08 529.82 543.78 524.16 527.37C524.16 527.37 523.72 526.93 523.29 526.48C532.87 525.6 544.18 522.05 553.33 519.39C568.12 515.39 581.62 516.28 596.85 512.29C603.82 510.52 610.78 508.3 617.75 506.08C617.75 505.69 617.75 502.49 617.75 502.1C609.91 494.11 604.25 483.47 595.98 475.93C573.78 456.42 549.41 437.35 524.16 421.39C510.67 412.52 493.25 406.75 478.89 399.22C473.67 396.55 464.96 395.23 461.92 390.79C454.08 381.04 449.72 368.18 444.07 356.65C431.45 332.26 419.26 305.21 408.37 279.49C400.54 262.2 395.75 244.9 386.18 228.94C341.34 153.56 292.59 107.88 217.72 63.09C201.62 53.78 182.46 49.79 162.01 44.92C151.13 44.47 140.24 43.59 129.36 43.14C122.4 40.04 115.43 31.61 109.34 27.62C84.53 11.66 20.54 -22.93 2.26 22.75C-9.5 51.57 19.67 79.94 29.68 94.58C37.08 104.78 46.66 116.31 51.88 127.84C54.93 135.37 55.8 143.36 58.84 151.34C65.81 170.84 72.34 192.58 81.48 210.76C86.27 220.07 91.49 229.83 97.59 238.25C101.07 243.13 107.16 245.35 108.47 253.33C102.38 262.2 101.94 275.5 98.45 286.59C82.78 336.69 88.88 398.77 111.08 435.58C118.04 446.66 134.58 471.06 156.78 461.74C176.37 453.76 172.02 428.48 177.67 406.31C178.98 400.99 178.11 397.44 180.72 393.9C180.72 393.98 180.72 394.7 180.72 394.79C186.82 407.2 192.91 419.17 198.57 431.59C212.06 453.31 235.57 475.93 255.15 491.01C265.61 498.99 273.87 512.74 286.93 517.61C286.93 517.53 286.93 517.08 286.93 516.28C286.41 516.28 286.12 516.28 286.06 516.28C283.45 512.29 279.53 510.52 276.05 507.41C268.22 499.43 259.51 489.68 253.42 480.81C235.14 455.97 219.03 428.48 204.66 400.1C197.7 386.36 191.6 371.28 185.95 357.54C183.33 352.21 183.33 344.23 178.98 341.57C172.45 351.33 162.88 359.75 158.09 371.72C149.82 390.79 148.95 414.29 145.9 438.68C144.16 439.13 145.03 438.68 144.16 439.57C130.23 436.02 125.44 421.39 120.22 408.97C107.16 377.49 104.98 326.94 116.3 290.58C119.35 281.26 132.41 252 127.19 243.13C124.57 234.7 115.86 229.83 111.08 223.18C105.42 214.75 99.32 204.11 95.41 194.8C84.96 169.96 79.74 142.47 68.42 117.64C63.2 106.11 54.06 94.14 46.66 83.49C38.39 71.52 29.25 63.09 22.72 48.91C20.54 44.03 17.49 36.05 20.97 30.73C21.85 27.18 23.58 25.85 27.07 24.96C32.73 20.08 48.84 26.29 54.49 28.95C70.6 35.6 84.09 41.81 97.59 51.12C103.68 55.56 110.21 63.98 118.04 66.2C118.95 66.2 126.27 66.2 127.18 66.2C141.11 69.3 156.78 67.09 169.84 71.08C192.91 78.61 213.8 89.7 232.52 101.67C289.55 138.48 336.55 190.8 368.33 253.33C373.55 263.52 375.73 272.84 380.52 283.48C389.66 305.21 400.98 327.38 410.11 348.67C419.26 369.5 427.96 390.79 441.02 408.09C447.55 417.4 473.67 422.28 485.42 427.15C494.13 431.14 507.62 434.69 515.45 439.57C530.25 448.88 545.05 459.53 558.98 469.72C565.95 475.04 587.71 486.13 589.02 495C554.2 494.11 527.21 497.66 504.57 507.41Z" id="aFt4iZPCA"></path><path d="M127.57 111.87C127.57 111.93 127.57 112.23 127.57 112.76C128.11 112.76 128.4 112.76 128.46 112.76C132.01 119.85 138.21 124.73 142.65 130.94C146.2 138.03 149.3 145.13 152.85 152.23C153.29 151.78 153.73 151.34 153.73 151.34C159.94 146.9 163.05 139.81 163.05 129.17C160.39 126.06 159.94 122.96 157.72 119.85C155.07 115.42 149.3 113.2 145.75 109.65C138.21 109.65 132.89 110.54 127.57 111.87Z" id="aAq8XwRq7"></path></defs><g><g><g><use xlink:href="#j3cs67Qgak" opacity="1" fill="#ffffff" fill-opacity="1"></use><g><use xlink:href="#j3cs67Qgak" opacity="1" fill-opacity="0" stroke="#67ec64" stroke-width="0" stroke-opacity="1"></use></g></g><g><use xlink:href="#b4n9h2DbwO" opacity="1" fill="#00546b" fill-opacity="1"></use><g><use xlink:href="#b4n9h2DbwO" opacity="1" fill-opacity="0" stroke="#000000" stroke-width="1" stroke-opacity="0"></use></g></g><g><use xlink:href="#aFt4iZPCA" opacity="1" fill="#00546b" fill-opacity="1"></use><g><use xlink:href="#aFt4iZPCA" opacity="1" fill-opacity="0" stroke="#000000" stroke-width="1" stroke-opacity="0"></use></g></g><g><use xlink:href="#aAq8XwRq7" opacity="1" fill="#00546b" fill-opacity="1"></use><g><use xlink:href="#aAq8XwRq7" opacity="1" fill-opacity="0" stroke="#000000" stroke-width="1" stroke-opacity="0"></use></g></g></g></g></svg>