<?xml version="1.0" encoding="UTF-8" standalone="no"?>
<!DOCTYPE svg PUBLIC "-//W3C//DTD SVG 1.1//EN" "http://www.w3.org/Graphics/SVG/1.1/DTD/svg11.dtd">
<svg version="1.1" xmlns="http://www.w3.org/2000/svg" xmlns:xlink="http://www.w3.org/1999/xlink" preserveAspectRatio="xMidYMid meet" viewBox="0 0 640 640" width="640" height="640"><defs><path d="M0 0L643.45 0L643.45 640L0 640L0 0Z" id="d6coQlEtQH"></path><path d="M31.69 28.28C20.01 30.28 9.38 37.9 4.38 47.92C4.09 48.51 2.63 51.45 0 56.74L0.42 266.96L1.04 477.18C5.05 484.99 7.27 489.33 7.72 490.2C11.47 497.41 36.92 531.09 64.65 565.75C119.51 634.08 123.47 637.89 144.32 639.89C150.37 640.49 195.83 638.49 245.06 635.69C294.49 632.68 373.73 628.07 421.29 625.47C624.42 613.62 613.99 614.63 625.66 605.01C640.26 593.39 639.22 612.42 639.84 356.92C640.26 140.29 640.05 126.07 636.71 119.46C632.76 112.05 625.66 106.84 533.06 44.31C471.12 2.63 466.74 0.42 438.99 0.02C427.53 -0.37 332.85 5.63 228.78 13.25C124.51 20.66 35.86 27.48 31.69 28.28ZM545.36 95.61C547.87 98.02 548.7 100.02 547.45 101.22C544.53 103.63 148.26 126.28 136.8 124.67C131.59 123.87 123.87 120.87 119.5 118.05C101.35 106.23 56.31 70.76 56.31 68.16C56.31 61.34 54.84 61.34 231.5 49.13C265.29 46.92 320.76 42.92 354.55 40.31C427.74 34.69 449.65 34.89 463.2 40.7C471.95 44.5 535.99 87.38 545.36 95.61ZM595.42 163.74C596.04 168.55 596.46 258.33 596.04 362.93C595.42 542.48 595.21 553.71 591.66 558.92C589.58 562.12 585.41 565.53 582.27 566.53C573.52 569.94 158.28 592.59 149.74 590.18C145.78 589.18 140.35 585.97 137.43 583.17C137.1 582.82 135.43 581.09 132.42 577.96C132.05 461.82 131.84 397.29 131.8 384.39C131.38 248.52 131.8 188.4 133.48 182.99C134.73 178.98 137.85 174.17 140.57 172.57C144.33 170.16 168.94 168.16 253.62 163.36C313.06 160.15 405.03 154.74 457.8 151.74C583.32 144.31 582.91 144.31 589.17 150.32C592.08 153.12 594.59 158.53 595.42 163.74Z" id="d2LgfXufOV"></path><path d="M432.74 221.26C425.86 224.67 421.69 230.28 420.86 236.7C420.24 243.31 422.32 244.11 444.84 246.72C445.49 246.8 448.76 247.2 454.64 247.92C454.64 299.26 454.64 327.79 454.64 333.49C454.64 384.39 453.8 418.06 452.76 417.06C451.72 415.85 422.11 372.57 386.86 320.87C351.61 268.97 322.41 226.28 321.99 225.89C321.57 225.48 298.63 226.68 271.11 228.5C237.32 230.7 218.76 232.7 215 234.71C208.94 237.71 202.27 248.33 202.27 255.35C202.27 259.56 210.2 261.76 226.88 261.76C227.47 261.76 230.39 261.76 235.64 261.76L235.64 507.84C227.13 510.37 222.41 511.77 221.46 512.05C210.41 515.26 206.65 517.26 204.78 521.26C201.44 528.08 201.65 534.29 204.99 534.29C206.24 534.29 229.81 532.89 256.91 531.29C310.52 528.29 316.56 526.88 322.19 516.26C323.86 513.05 325.31 509.64 325.31 508.64C325.31 507.84 318.02 505.44 309.25 503.43C300.28 501.43 291.31 499.43 289.44 499.02C285.89 498.02 285.68 491.81 285.68 405.64C285.68 399.48 285.68 368.68 285.68 313.25C323.72 370.61 344.85 402.47 349.08 408.84C415.61 509.04 423.96 520.47 434.18 525.47C446.91 531.88 479.23 527.47 495.5 517.26C495.83 517.06 497.5 516.06 500.51 514.26L500.93 377.59L501.55 240.73C508.18 239.52 511.87 238.86 512.6 238.72C525.74 236.32 531.79 230.51 531.79 220.49C531.79 214.07 531.37 213.67 525.12 213.87C521.39 214.04 499.9 215.24 477.58 216.65C455.06 218.05 435.04 220.06 432.74 221.26Z" id="cb9BvR3vO"></path></defs><g><g><g><use xlink:href="#d6coQlEtQH" opacity="1" fill="#ffffff" fill-opacity="1"></use><g><use xlink:href="#d6coQlEtQH" opacity="1" fill-opacity="0" stroke="#67ec64" stroke-width="0" stroke-opacity="1"></use></g></g><g><use xlink:href="#d2LgfXufOV" opacity="1" fill="#000000" fill-opacity="1"></use><g><use xlink:href="#d2LgfXufOV" opacity="1" fill-opacity="0" stroke="#000000" stroke-width="1" stroke-opacity="0"></use></g></g><g><use xlink:href="#cb9BvR3vO" opacity="1" fill="#000000" fill-opacity="1"></use><g><use xlink:href="#cb9BvR3vO" opacity="1" fill-opacity="0" stroke="#000000" stroke-width="1" stroke-opacity="0"></use></g></g></g></g></svg>