<svg xmlns="http://www.w3.org/2000/svg" xmlns:xlink="http://www.w3.org/1999/xlink" width="640" height="186.35" viewBox="0 0 640 186.35">
  <defs>
    <clipPath id="clip-Custom_Size_1">
      <rect width="640" height="186.35"/>
    </clipPath>
  </defs>
  <g id="Custom_Size_1" data-name="Custom Size – 1" clip-path="url(#clip-Custom_Size_1)">
    <g id="bmc-logo-white">
      <g id="Group_41" data-name="Group 41">
        <g id="Group_2" data-name="Group 2">
          <path id="Path_1" data-name="Path 1" d="M28.76,0H611.24C627.12,0,640,13.35,640,29.82V156.54c0,16.46-12.88,29.81-28.76,29.81H28.76C12.88,186.35,0,173,0,156.54V29.82Q12.885,0,28.76,0Z" fill="#fff"/>
          <g id="Group_1" data-name="Group 1">
            <path id="Path_2" data-name="Path 2" d="M28.76,0H611.24C627.12,0,640,13.35,640,29.82V156.54c0,16.46-12.88,29.81-28.76,29.81H28.76C12.88,186.35,0,173,0,156.54V29.82Q12.885,0,28.76,0Z" fill="rgba(0,0,0,0)" stroke="rgba(0,0,0,0)" stroke-width="1"/>
          </g>
        </g>
        <g id="Group_4" data-name="Group 4">
          <path id="Path_3" data-name="Path 3" d="M128.76,59.14a1.834,1.834,0,0,0-.19-.05.449.449,0,0,0,.27.1C128.83,59.18,128.8,59.17,128.76,59.14Z" fill="#0d0c22"/>
          <g id="Group_3" data-name="Group 3">
            <path id="Path_4" data-name="Path 4" d="M128.76,59.14a1.834,1.834,0,0,0-.19-.05.449.449,0,0,0,.27.1C128.83,59.18,128.8,59.17,128.76,59.14Z" fill="rgba(0,0,0,0)" stroke="rgba(0,0,0,0)" stroke-width="1"/>
          </g>
        </g>
        <g id="Group_6" data-name="Group 6">
          <path id="Path_5" data-name="Path 5" d="M129.91,67.45l.08-.03Z" fill="#0d0c22"/>
          <g id="Group_5" data-name="Group 5">
            <path id="Path_6" data-name="Path 6" d="M129.91,67.45l.08-.03Z" fill="rgba(0,0,0,0)" stroke="rgba(0,0,0,0)" stroke-width="1"/>
          </g>
        </g>
        <g id="Group_8" data-name="Group 8">
          <path id="Path_7" data-name="Path 7" d="M128.84,59.17v.02c.01,0,.02-.01.03-.01C128.86,59.18,128.85,59.17,128.84,59.17Z" fill="#0d0c22"/>
          <g id="Group_7" data-name="Group 7">
            <path id="Path_8" data-name="Path 8" d="M128.84,59.17v.02c.01,0,.02-.01.03-.01C128.86,59.18,128.85,59.17,128.84,59.17Z" fill="rgba(0,0,0,0)" stroke="rgba(0,0,0,0)" stroke-width="1"/>
          </g>
        </g>
        <g id="Group_10" data-name="Group 10">
          <path id="Path_9" data-name="Path 9" d="M128.85,59.19Z" fill="#0d0c22"/>
          <g id="Group_9" data-name="Group 9">
            <path id="Path_10" data-name="Path 10" d="M128.85,59.19Z" fill="rgba(0,0,0,0)" stroke="rgba(0,0,0,0)" stroke-width="1"/>
          </g>
        </g>
        <g id="Group_12" data-name="Group 12">
          <path id="Path_11" data-name="Path 11" d="M130.06,67.33l.05-.03c.02-.03.04-.04.04-.05a.868.868,0,0,0-.23.16C129.94,67.4,129.99,67.37,130.06,67.33Z" fill="#0d0c22"/>
          <g id="Group_11" data-name="Group 11">
            <path id="Path_12" data-name="Path 12" d="M130.06,67.33l.05-.03c.02-.03.04-.04.04-.05a.868.868,0,0,0-.23.16C129.94,67.4,129.99,67.37,130.06,67.33Z" fill="rgba(0,0,0,0)" stroke="rgba(0,0,0,0)" stroke-width="1"/>
          </g>
        </g>
        <g id="Group_14" data-name="Group 14">
          <path id="Path_13" data-name="Path 13" d="M128.93,59.25a.453.453,0,0,0-.09-.05.372.372,0,0,0,.22.17C129.05,59.36,129,59.31,128.93,59.25Z" fill="#0d0c22"/>
          <g id="Group_13" data-name="Group 13">
            <path id="Path_14" data-name="Path 14" d="M128.93,59.25a.453.453,0,0,0-.09-.05.372.372,0,0,0,.22.17C129.05,59.36,129,59.31,128.93,59.25Z" fill="rgba(0,0,0,0)" stroke="rgba(0,0,0,0)" stroke-width="1"/>
          </g>
        </g>
        <g id="Group_16" data-name="Group 16">
          <path id="Path_15" data-name="Path 15" d="M96.05,139.43a.405.405,0,0,1,.09-.05c.05-.05.13-.12.18-.16A.79.79,0,0,0,96.05,139.43Z" fill="#0d0c22"/>
          <g id="Group_15" data-name="Group 15">
            <path id="Path_16" data-name="Path 16" d="M96.05,139.43a.405.405,0,0,1,.09-.05c.05-.05.13-.12.18-.16A.79.79,0,0,0,96.05,139.43Z" fill="rgba(0,0,0,0)" stroke="rgba(0,0,0,0)" stroke-width="1"/>
          </g>
        </g>
        <g id="Group_18" data-name="Group 18">
          <path id="Path_17" data-name="Path 17" d="M115.29,135.81c0-.04.02-.07.02-.11.01-.07.02-.14.03-.22C115.34,135.37,115.28,135.39,115.29,135.81Z" fill="#0d0c22"/>
          <g id="Group_17" data-name="Group 17">
            <path id="Path_18" data-name="Path 18" d="M115.29,135.81c0-.04.02-.07.02-.11.01-.07.02-.14.03-.22C115.34,135.37,115.28,135.39,115.29,135.81Z" fill="rgba(0,0,0,0)" stroke="rgba(0,0,0,0)" stroke-width="1"/>
          </g>
        </g>
        <g id="Group_20" data-name="Group 20">
          <path id="Path_19" data-name="Path 19" d="M113.11,139.43a.351.351,0,0,1,.08-.05c.05-.05.13-.12.18-.16A.755.755,0,0,0,113.11,139.43Z" fill="#0d0c22"/>
          <g id="Group_19" data-name="Group 19">
            <path id="Path_20" data-name="Path 20" d="M113.11,139.43a.351.351,0,0,1,.08-.05c.05-.05.13-.12.18-.16A.755.755,0,0,0,113.11,139.43Z" fill="rgba(0,0,0,0)" stroke="rgba(0,0,0,0)" stroke-width="1"/>
          </g>
        </g>
        <g id="Group_22" data-name="Group 22">
          <path id="Path_21" data-name="Path 21" d="M82.64,139.98c.08.05.17.09.22.12a.176.176,0,0,1,.06.01A1.278,1.278,0,0,0,82.64,139.98Z" fill="#0d0c22"/>
          <g id="Group_21" data-name="Group 21">
            <path id="Path_22" data-name="Path 22" d="M82.64,139.98c.08.05.17.09.22.12a.176.176,0,0,1,.06.01A1.278,1.278,0,0,0,82.64,139.98Z" fill="rgba(0,0,0,0)" stroke="rgba(0,0,0,0)" stroke-width="1"/>
          </g>
        </g>
        <g id="Group_24" data-name="Group 24">
          <path id="Path_23" data-name="Path 23" d="M79.8,136.88c.04.11.08.23.11.34v.01A1.2,1.2,0,0,0,79.8,136.88Z" fill="#0d0c22"/>
          <g id="Group_23" data-name="Group 23">
            <path id="Path_24" data-name="Path 24" d="M79.8,136.88c.04.11.08.23.11.34v.01A1.2,1.2,0,0,0,79.8,136.88Z" fill="rgba(0,0,0,0)" stroke="rgba(0,0,0,0)" stroke-width="1"/>
          </g>
        </g>
        <g id="Group_26" data-name="Group 26">
          <path id="Path_25" data-name="Path 25" d="M85.23,89.39a28.619,28.619,0,0,1-7.53-1.04c.42,4.32,3.79,38.89,4.21,43.21a7.213,7.213,0,0,0,7.2,6.63s5.96.31,7.96.31c2.14,0,8.56-.31,8.56-.31a7.213,7.213,0,0,0,7.2-6.63c.45-4.77,4.06-42.98,4.51-47.75A19.165,19.165,0,0,0,111,82.66c-3.97,0-7.16,1.37-10.85,2.95C96.01,87.38,91.32,89.39,85.23,89.39Z" fill="#fd0"/>
          <g id="Group_25" data-name="Group 25">
            <path id="Path_26" data-name="Path 26" d="M85.23,89.39a28.619,28.619,0,0,1-7.53-1.04c.42,4.32,3.79,38.89,4.21,43.21a7.213,7.213,0,0,0,7.2,6.63s5.96.31,7.96.31c2.14,0,8.56-.31,8.56-.31a7.213,7.213,0,0,0,7.2-6.63c.45-4.77,4.06-42.98,4.51-47.75A19.165,19.165,0,0,0,111,82.66c-3.97,0-7.16,1.37-10.85,2.95C96.01,87.38,91.32,89.39,85.23,89.39Z" fill="rgba(0,0,0,0)" stroke="rgba(0,0,0,0)" stroke-width="1"/>
          </g>
        </g>
        <g id="Group_28" data-name="Group 28">
          <path id="Path_27" data-name="Path 27" d="M64.75,67.24c.03.02.05.02.05.03a1.06,1.06,0,0,0-.12-.1Z" fill="#0d0c22"/>
          <g id="Group_27" data-name="Group 27">
            <path id="Path_28" data-name="Path 28" d="M64.75,67.24c.03.02.05.02.05.03a1.06,1.06,0,0,0-.12-.1Z" fill="rgba(0,0,0,0)" stroke="rgba(0,0,0,0)" stroke-width="1"/>
          </g>
        </g>
        <g id="Group_30" data-name="Group 30">
          <path id="Path_29" data-name="Path 29" d="M136.18,59.99c-.57-2.87-1.86-5.58-4.81-6.62a7.215,7.215,0,0,1-2.74-1.16,4.719,4.719,0,0,1-1.1-2.74c-.31-1.82-.6-3.63-.92-5.44a17.485,17.485,0,0,0-1.21-4.74,8.339,8.339,0,0,0-4.77-3.78,26.81,26.81,0,0,0-3.01-.93,73.428,73.428,0,0,0-14.76-2,125.326,125.326,0,0,0-17.76.3c-4.39.4-9.02.88-13.2,2.4a11.2,11.2,0,0,0-4.26,2.41,4.606,4.606,0,0,0-.85,5.49,7.076,7.076,0,0,0,3.32,2.79,27.624,27.624,0,0,0,5.39,1.76,89,89,0,0,0,15.78,1.78,120.5,120.5,0,0,0,17.51-.58c1.44-.15,2.87-.34,4.3-.57a3.257,3.257,0,0,0,2.28-4,3.351,3.351,0,0,0-4-2.27c-.27.04-.54.08-.8.12a1.38,1.38,0,0,0-.2.03c-.61.07-1.22.15-1.83.21-1.27.14-2.54.25-3.81.34-2.85.2-5.7.29-8.56.29-2.8,0-5.61-.08-8.41-.26-1.27-.09-2.55-.19-3.82-.32-.58-.06-1.15-.12-1.73-.2-.04,0-.22-.02-.55-.07l-.12-.01c-.34-.05-.53-.08-.57-.08-1.16-.18-2.32-.38-3.47-.62a.482.482,0,0,1-.29-.19.49.49,0,0,1-.12-.32.5.5,0,0,1,.12-.33.468.468,0,0,1,.29-.18h.02c1-.22,2-.4,3.01-.56l1.01-.15h.01c.63-.04,1.26-.16,1.89-.23a120.317,120.317,0,0,1,16.44-.58c2.66.08,5.33.23,7.98.5.57.06,1.14.12,1.7.19l.66.09c.04,0,.39.06.44.06,1.28.19,2.56.42,3.83.7,1.88.41,4.29.54,5.13,2.6a11.228,11.228,0,0,1,.53,2.07c.02.09.17.79.19.87a.109.109,0,0,1,.01.05c.45,2.07.89,4.13,1.33,6.2a1.021,1.021,0,0,1,.01.46,1.112,1.112,0,0,1-.19.43,1.256,1.256,0,0,1-.33.32,1.211,1.211,0,0,1-.44.15h-.01l-.27.04a2,2,0,0,0-.27.04c-.85.11-1.7.21-2.55.31-1.68.19-3.36.35-5.04.49q-5.01.42-10.05.55c-1.71.04-3.42.06-5.12.06a177.531,177.531,0,0,1-20.36-1.18c-.73-.09-1.46-.18-2.19-.28.57.08-.41-.05-.61-.08-.47-.07-.93-.13-1.4-.2-1.56-.24-3.11-.53-4.67-.78a8.1,8.1,0,0,0-5.38.78,7.81,7.81,0,0,0-3.25,3.36,19.908,19.908,0,0,0-1.28,4.8,16.459,16.459,0,0,0-.64,5.07,8.081,8.081,0,0,0,6.58,7.21c3.42.62,6.85,1.12,10.3,1.55a191.435,191.435,0,0,0,40.82.59c1.1-.11,2.21-.22,3.31-.34a2.2,2.2,0,0,1,1.02.12,2.293,2.293,0,0,1,1.42,1.41,2.338,2.338,0,0,1,.13,1.02c-.04.33-.31,3.01-.35,3.34q-1.035,10.14-2.08,20.27-1.08,10.65-2.18,21.29c-.21,1.99-.41,3.99-.62,5.99-.2,1.97-.23,3.99-.6,5.94a6.919,6.919,0,0,1-5.68,5.62,39.126,39.126,0,0,1-8.42.98c-3.15.02-6.29-.12-9.43-.1-3.36.01-7.47-.29-10.06-2.79-2.28-2.2-2.59-5.63-2.9-8.6q-.63-5.91-1.23-11.8-.225-2.19-2.28-21.86-1.32-12.735-1.47-14.15c-.03-.24-.05-.47-.08-.7a3.332,3.332,0,0,0-3.25-3.26c-1.61.08-3.44,1.45-3.25,3.26.07.7.43,4.19,1.09,10.49q2.025,19.515,2.26,21.69.96,9.24,1.92,18.49c.13,1.18.24,2.37.37,3.55.71,6.45,5.64,9.93,11.74,10.91a76.891,76.891,0,0,0,10.83.75c4.64.07,9.32.25,13.88-.59,6.76-1.24,11.83-5.75,12.56-12.75.2-2.02.41-4.05.62-6.07q1.02-10.02,2.05-20.06.225-2.175,2.24-21.85.93-9,1.03-10.01a2.326,2.326,0,0,1,1.87-2.04,9.161,9.161,0,0,0,5.16-2.49,8.811,8.811,0,0,0,1.85-8.48C136.68,62.54,136.24,60.31,136.18,59.99ZM64.07,65.7c-.01-.18,0-.34.05-.36C64.15,65.33,64.09,65.58,64.07,65.7Zm.34,1.22a.556.556,0,0,1-.11-.13h0A.449.449,0,0,1,64.41,66.92Zm.08.12Zm.38.3c0,.01.02.02.02.03l-.03-.03h.01Zm62.07.67a196.019,196.019,0,0,1-35.07,2.21,235.277,235.277,0,0,1-24.99-2.4,3.637,3.637,0,0,1-2.25-.86c-1.06-1.13-.54-3.41-.26-4.77.25-1.26.73-2.93,2.22-3.1,2.32-.28,5.02.7,7.32,1.05,2.77.43,5.55.76,8.34,1.02a161.672,161.672,0,0,0,35.86-.67q3.24-.435,6.45-1.01c1.92-.35,4.03-.99,5.19.99a8.158,8.158,0,0,1,.77,4.67,2.546,2.546,0,0,1-.81,1.75h0A9,9,0,0,1,126.94,68.01Z" fill="#0d0c22"/>
          <g id="Group_29" data-name="Group 29">
            <path id="Path_30" data-name="Path 30" d="M136.18,59.99c-.57-2.87-1.86-5.58-4.81-6.62a7.215,7.215,0,0,1-2.74-1.16,4.719,4.719,0,0,1-1.1-2.74c-.31-1.82-.6-3.63-.92-5.44a17.485,17.485,0,0,0-1.21-4.74,8.339,8.339,0,0,0-4.77-3.78,26.81,26.81,0,0,0-3.01-.93,73.428,73.428,0,0,0-14.76-2,125.326,125.326,0,0,0-17.76.3c-4.39.4-9.02.88-13.2,2.4a11.2,11.2,0,0,0-4.26,2.41,4.606,4.606,0,0,0-.85,5.49,7.076,7.076,0,0,0,3.32,2.79,27.624,27.624,0,0,0,5.39,1.76,89,89,0,0,0,15.78,1.78,120.5,120.5,0,0,0,17.51-.58c1.44-.15,2.87-.34,4.3-.57a3.257,3.257,0,0,0,2.28-4,3.351,3.351,0,0,0-4-2.27c-.27.04-.54.08-.8.12a1.38,1.38,0,0,0-.2.03c-.61.07-1.22.15-1.83.21-1.27.14-2.54.25-3.81.34-2.85.2-5.7.29-8.56.29-2.8,0-5.61-.08-8.41-.26-1.27-.09-2.55-.19-3.82-.32-.58-.06-1.15-.12-1.73-.2-.04,0-.22-.02-.55-.07l-.12-.01c-.34-.05-.53-.08-.57-.08-1.16-.18-2.32-.38-3.47-.62a.482.482,0,0,1-.29-.19.49.49,0,0,1-.12-.32.5.5,0,0,1,.12-.33.468.468,0,0,1,.29-.18h.02c1-.22,2-.4,3.01-.56l1.01-.15h.01c.63-.04,1.26-.16,1.89-.23a120.317,120.317,0,0,1,16.44-.58c2.66.08,5.33.23,7.98.5.57.06,1.14.12,1.7.19l.66.09c.04,0,.39.06.44.06,1.28.19,2.56.42,3.83.7,1.88.41,4.29.54,5.13,2.6a11.228,11.228,0,0,1,.53,2.07c.02.09.17.79.19.87a.109.109,0,0,1,.01.05c.45,2.07.89,4.13,1.33,6.2a1.021,1.021,0,0,1,.01.46,1.112,1.112,0,0,1-.19.43,1.256,1.256,0,0,1-.33.32,1.211,1.211,0,0,1-.44.15h-.01l-.27.04a2,2,0,0,0-.27.04c-.85.11-1.7.21-2.55.31-1.68.19-3.36.35-5.04.49q-5.01.42-10.05.55c-1.71.04-3.42.06-5.12.06a177.531,177.531,0,0,1-20.36-1.18c-.73-.09-1.46-.18-2.19-.28.57.08-.41-.05-.61-.08-.47-.07-.93-.13-1.4-.2-1.56-.24-3.11-.53-4.67-.78a8.1,8.1,0,0,0-5.38.78,7.81,7.81,0,0,0-3.25,3.36,19.908,19.908,0,0,0-1.28,4.8,16.459,16.459,0,0,0-.64,5.07,8.081,8.081,0,0,0,6.58,7.21c3.42.62,6.85,1.12,10.3,1.55a191.435,191.435,0,0,0,40.82.59c1.1-.11,2.21-.22,3.31-.34a2.2,2.2,0,0,1,1.02.12,2.293,2.293,0,0,1,1.42,1.41,2.338,2.338,0,0,1,.13,1.02c-.04.33-.31,3.01-.35,3.34q-1.035,10.14-2.08,20.27-1.08,10.65-2.18,21.29c-.21,1.99-.41,3.99-.62,5.99-.2,1.97-.23,3.99-.6,5.94a6.919,6.919,0,0,1-5.68,5.62,39.126,39.126,0,0,1-8.42.98c-3.15.02-6.29-.12-9.43-.1-3.36.01-7.47-.29-10.06-2.79-2.28-2.2-2.59-5.63-2.9-8.6q-.63-5.91-1.23-11.8-.225-2.19-2.28-21.86-1.32-12.735-1.47-14.15c-.03-.24-.05-.47-.08-.7a3.332,3.332,0,0,0-3.25-3.26c-1.61.08-3.44,1.45-3.25,3.26.07.7.43,4.19,1.09,10.49q2.025,19.515,2.26,21.69.96,9.24,1.92,18.49c.13,1.18.24,2.37.37,3.55.71,6.45,5.64,9.93,11.74,10.91a76.891,76.891,0,0,0,10.83.75c4.64.07,9.32.25,13.88-.59,6.76-1.24,11.83-5.75,12.56-12.75.2-2.02.41-4.05.62-6.07q1.02-10.02,2.05-20.06.225-2.175,2.24-21.85.93-9,1.03-10.01a2.326,2.326,0,0,1,1.87-2.04,9.161,9.161,0,0,0,5.16-2.49,8.811,8.811,0,0,0,1.85-8.48C136.68,62.54,136.24,60.31,136.18,59.99ZM64.07,65.7c-.01-.18,0-.34.05-.36C64.15,65.33,64.09,65.58,64.07,65.7Zm.34,1.22a.556.556,0,0,1-.11-.13h0A.449.449,0,0,1,64.41,66.92Zm.08.12Zm.38.3c0,.01.02.02.02.03l-.03-.03h.01Zm62.07.67a196.019,196.019,0,0,1-35.07,2.21,235.277,235.277,0,0,1-24.99-2.4,3.637,3.637,0,0,1-2.25-.86c-1.06-1.13-.54-3.41-.26-4.77.25-1.26.73-2.93,2.22-3.1,2.32-.28,5.02.7,7.32,1.05,2.77.43,5.55.76,8.34,1.02a161.672,161.672,0,0,0,35.86-.67q3.24-.435,6.45-1.01c1.92-.35,4.03-.99,5.19.99a8.158,8.158,0,0,1,.77,4.67,2.546,2.546,0,0,1-.81,1.75h0A9,9,0,0,1,126.94,68.01Z" fill="rgba(0,0,0,0)" stroke="rgba(0,0,0,0)" stroke-width="1"/>
          </g>
        </g>
        <g id="Group_32" data-name="Group 32">
          <path id="Path_31" data-name="Path 31" d="M197.23,102.47a15.153,15.153,0,0,1-4.15,2.33,20.935,20.935,0,0,1-4.76,1.21,16.056,16.056,0,0,1-4.65-.06,8.914,8.914,0,0,1-3.84-1.49c.12-1.23,1.07-11.07,1.19-12.31,1.09-.37,2.46-.75,4.11-1.15a38.624,38.624,0,0,1,5.11-.84,21.51,21.51,0,0,1,4.96.06,6.186,6.186,0,0,1,4.93,2.95,3.954,3.954,0,0,1,.63,1.63,7.268,7.268,0,0,1-.74,4.3A10.823,10.823,0,0,1,197.23,102.47ZM185.67,71.59a17.233,17.233,0,0,1,3.41-.79,15.012,15.012,0,0,1,3.41-.06,7.267,7.267,0,0,1,2.94.93,4.645,4.645,0,0,1,1.88,2.19,6.844,6.844,0,0,1,.34,3.63,5.113,5.113,0,0,1-1.38,2.95,9.868,9.868,0,0,1-2.82,2.02,17.4,17.4,0,0,1-3.52,1.29,30.549,30.549,0,0,1-3.58.71c-1.15.15-2.15.24-2.99.28s-1.41.05-1.67.05q.12-1.185,1.13-11.91A20.764,20.764,0,0,1,185.67,71.59Zm18.02,16.1a9.057,9.057,0,0,0-3.61-2.17,7.868,7.868,0,0,0,1.78-2.3,20.16,20.16,0,0,0,1.49-3.43,19.055,19.055,0,0,0,.85-3.74,8.377,8.377,0,0,0-.17-3.23,10.675,10.675,0,0,0-7.82-7.92,15.533,15.533,0,0,0-6.03-.31,31.416,31.416,0,0,0-6.74,1.66,3.03,3.03,0,0,1,.06-.59,4.509,4.509,0,0,0,.05-.65,1.787,1.787,0,0,0-.84-1.46,3.988,3.988,0,0,0-1.95-.73,3.517,3.517,0,0,0-2.14.48,3.184,3.184,0,0,0-1.44,2.16c-.3,3.37-.6,6.88-.9,10.51s-.62,7.31-.96,11.02-.68,7.38-1.02,11.04-.67,7.16-1.01,10.53a4.458,4.458,0,0,0,.84,2.36,2.676,2.676,0,0,0,1.58,1.02,3.09,3.09,0,0,0,1.89-.31,4.31,4.31,0,0,0,1.72-1.66,14.348,14.348,0,0,0,5.08,1.6,22.81,22.81,0,0,0,5.72,0,26.29,26.29,0,0,0,5.73-1.38,24,24,0,0,0,5.13-2.52,17.217,17.217,0,0,0,3.89-3.46,10.156,10.156,0,0,0,2.09-4.19,14.611,14.611,0,0,0,.28-4.61,13.4,13.4,0,0,0-1.13-4.27A11.494,11.494,0,0,0,203.69,87.69Z" fill="#0d0c23"/>
          <g id="Group_31" data-name="Group 31">
            <path id="Path_32" data-name="Path 32" d="M197.23,102.47a15.153,15.153,0,0,1-4.15,2.33,20.935,20.935,0,0,1-4.76,1.21,16.056,16.056,0,0,1-4.65-.06,8.914,8.914,0,0,1-3.84-1.49c.12-1.23,1.07-11.07,1.19-12.31,1.09-.37,2.46-.75,4.11-1.15a38.624,38.624,0,0,1,5.11-.84,21.51,21.51,0,0,1,4.96.06,6.186,6.186,0,0,1,4.93,2.95,3.954,3.954,0,0,1,.63,1.63,7.268,7.268,0,0,1-.74,4.3A10.823,10.823,0,0,1,197.23,102.47ZM185.67,71.59a17.233,17.233,0,0,1,3.41-.79,15.012,15.012,0,0,1,3.41-.06,7.267,7.267,0,0,1,2.94.93,4.645,4.645,0,0,1,1.88,2.19,6.844,6.844,0,0,1,.34,3.63,5.113,5.113,0,0,1-1.38,2.95,9.868,9.868,0,0,1-2.82,2.02,17.4,17.4,0,0,1-3.52,1.29,30.549,30.549,0,0,1-3.58.71c-1.15.15-2.15.24-2.99.28s-1.41.05-1.67.05q.12-1.185,1.13-11.91A20.764,20.764,0,0,1,185.67,71.59Zm18.02,16.1a9.057,9.057,0,0,0-3.61-2.17,7.868,7.868,0,0,0,1.78-2.3,20.16,20.16,0,0,0,1.49-3.43,19.055,19.055,0,0,0,.85-3.74,8.377,8.377,0,0,0-.17-3.23,10.675,10.675,0,0,0-7.82-7.92,15.533,15.533,0,0,0-6.03-.31,31.416,31.416,0,0,0-6.74,1.66,3.03,3.03,0,0,1,.06-.59,4.509,4.509,0,0,0,.05-.65,1.787,1.787,0,0,0-.84-1.46,3.988,3.988,0,0,0-1.95-.73,3.517,3.517,0,0,0-2.14.48,3.184,3.184,0,0,0-1.44,2.16c-.3,3.37-.6,6.88-.9,10.51s-.62,7.31-.96,11.02-.68,7.38-1.02,11.04-.67,7.16-1.01,10.53a4.458,4.458,0,0,0,.84,2.36,2.676,2.676,0,0,0,1.58,1.02,3.09,3.09,0,0,0,1.89-.31,4.31,4.31,0,0,0,1.72-1.66,14.348,14.348,0,0,0,5.08,1.6,22.81,22.81,0,0,0,5.72,0,26.29,26.29,0,0,0,5.73-1.38,24,24,0,0,0,5.13-2.52,17.217,17.217,0,0,0,3.89-3.46,10.156,10.156,0,0,0,2.09-4.19,14.611,14.611,0,0,0,.28-4.61,13.4,13.4,0,0,0-1.13-4.27A11.494,11.494,0,0,0,203.69,87.69Z" fill="rgba(0,0,0,0)" stroke="rgba(0,0,0,0)" stroke-width="1"/>
          </g>
        </g>
        <g id="Group_34" data-name="Group 34">
          <path id="Path_33" data-name="Path 33" d="M260.26,124.72a25.9,25.9,0,0,1-1.32,3.74,10.675,10.675,0,0,1-1.69,2.72,2.209,2.209,0,0,1-2.01.87,1.228,1.228,0,0,1-1.07-1.06,6.193,6.193,0,0,1,0-2.36,17.481,17.481,0,0,1,.87-3.18,27.684,27.684,0,0,1,3.7-6.86,15.685,15.685,0,0,1,2.48-2.67,3,3,0,0,1,.25,1.69,23.631,23.631,0,0,1-.33,3.2A38.988,38.988,0,0,1,260.26,124.72Zm18.13-29.25a2.659,2.659,0,0,0-2.22,1.24,13.431,13.431,0,0,1-1.86,2.58,25.878,25.878,0,0,1-2.34,2.25,27.45,27.45,0,0,1-2.32,1.74c-.73.49-1.3.84-1.72,1.07a35.488,35.488,0,0,1-.25-3.88c-.02-1.39.01-2.79.08-4.21a54.063,54.063,0,0,1,.71-6.13,40.023,40.023,0,0,1,1.55-6.07,4.243,4.243,0,0,0-.73-2.56,3.16,3.16,0,0,0-1.78-1.23,3.071,3.071,0,0,0-2.14.28,4.432,4.432,0,0,0-1.89,1.94c-.45,1.23-.97,2.62-1.55,4.16s-1.24,3.1-1.98,4.69a46.461,46.461,0,0,1-2.45,4.63,24.836,24.836,0,0,1-2.96,4,12.7,12.7,0,0,1-3.5,2.72,7.737,7.737,0,0,1-4.09.87,2.208,2.208,0,0,1-1.46-1.52,10.275,10.275,0,0,1-.54-3.09,25.2,25.2,0,0,1,.17-4.07c.17-1.48.39-2.95.68-4.41s.59-2.85.93-4.16.65-2.42.95-3.32a2.831,2.831,0,0,0,0-2.72,3.242,3.242,0,0,0-1.86-1.46,4.046,4.046,0,0,0-2.48.03,2.867,2.867,0,0,0-1.86,1.74,43.889,43.889,0,0,0-1.75,5.17,54.549,54.549,0,0,0-1.27,5.93,43.279,43.279,0,0,0-.53,6.07v.38a25.27,25.27,0,0,1-2.34,4.93c-.96,1.42-2.04,2.04-3.25,1.85a1.989,1.989,0,0,1-1.04-1.57,12.8,12.8,0,0,1-.17-3.04c.06-1.2.2-2.55.42-4.07s.51-3.09.85-4.72.7-3.27,1.07-4.92.72-3.2,1.02-4.66a4.125,4.125,0,0,0-1.16-3.01,3.694,3.694,0,0,0-3.07-.82,4.568,4.568,0,0,0-2,1.47,6.916,6.916,0,0,0-1.05,2.3c-.15.49-.37,1.46-.67,2.92s-.69,3.14-1.16,5.03-1.03,3.87-1.66,5.93a42.149,42.149,0,0,1-2.15,5.59,15.769,15.769,0,0,1-2.59,4.02,3.322,3.322,0,0,1-3.05,1.24c-.6-.12-.98-.73-1.15-1.86a19.684,19.684,0,0,1-.09-4.16,53.06,53.06,0,0,1,.68-5.42c.34-1.97.68-3.83,1.04-5.59s.69-3.32.99-4.67.51-2.24.62-2.69a4.351,4.351,0,0,0-.73-2.62,3.127,3.127,0,0,0-1.78-1.23,3.071,3.071,0,0,0-2.14.28,4.432,4.432,0,0,0-1.89,1.94c-.19,1.01-.44,2.18-.74,3.51s-.59,2.7-.87,4.1-.55,2.78-.79,4.13-.42,2.53-.54,3.54c-.07.79-.16,1.75-.25,2.9s-.14,2.35-.14,3.62a25.151,25.151,0,0,0,.28,3.79,12.553,12.553,0,0,0,1.02,3.46,6.726,6.726,0,0,0,2.06,2.59,5.985,5.985,0,0,0,3.35,1.12,11.776,11.776,0,0,0,3.64-.31,8.9,8.9,0,0,0,2.82-1.32,12.261,12.261,0,0,0,2.31-2.14c.7-.82,1.38-1.72,2.06-2.69a8.492,8.492,0,0,0,2.48,3.31,6.645,6.645,0,0,0,3.22,1.41,6.732,6.732,0,0,0,3.44-.48,8.021,8.021,0,0,0,3.15-2.39,17.429,17.429,0,0,0,1.76-2.34,10.48,10.48,0,0,0,.75,1.16,7.039,7.039,0,0,0,3.76,2.47,11.154,11.154,0,0,0,4.96.23,15.722,15.722,0,0,0,4.62-1.63,21.672,21.672,0,0,0,4.09-2.84,25.931,25.931,0,0,0,3.3-3.45c-.04.86-.06,1.67-.06,2.44s-.01,1.6-.05,2.5a32.057,32.057,0,0,0-5.33,4.72,38.092,38.092,0,0,0-4.4,5.87,31.348,31.348,0,0,0-2.96,6.32,18.213,18.213,0,0,0-1.04,5.99,9.152,9.152,0,0,0,1.32,4.86,7.189,7.189,0,0,0,4.23,2.98,8.015,8.015,0,0,0,5.36.06,9.9,9.9,0,0,0,4.03-2.98,17.279,17.279,0,0,0,2.82-5.03,40.864,40.864,0,0,0,1.75-6.16,45,45,0,0,0,.82-6.29,45.863,45.863,0,0,0,0-5.51,24.491,24.491,0,0,0,7.95-5.11,32.516,32.516,0,0,0,5.13-6.52,2.581,2.581,0,0,0,.43-2.02,4.085,4.085,0,0,0-.96-2.03A2.856,2.856,0,0,0,278.39,95.47Z" fill="#0d0c23"/>
          <g id="Group_33" data-name="Group 33">
            <path id="Path_34" data-name="Path 34" d="M260.26,124.72a25.9,25.9,0,0,1-1.32,3.74,10.675,10.675,0,0,1-1.69,2.72,2.209,2.209,0,0,1-2.01.87,1.228,1.228,0,0,1-1.07-1.06,6.193,6.193,0,0,1,0-2.36,17.481,17.481,0,0,1,.87-3.18,27.684,27.684,0,0,1,3.7-6.86,15.685,15.685,0,0,1,2.48-2.67,3,3,0,0,1,.25,1.69,23.631,23.631,0,0,1-.33,3.2A38.988,38.988,0,0,1,260.26,124.72Zm18.13-29.25a2.659,2.659,0,0,0-2.22,1.24,13.431,13.431,0,0,1-1.86,2.58,25.878,25.878,0,0,1-2.34,2.25,27.45,27.45,0,0,1-2.32,1.74c-.73.49-1.3.84-1.72,1.07a35.488,35.488,0,0,1-.25-3.88c-.02-1.39.01-2.79.08-4.21a54.063,54.063,0,0,1,.71-6.13,40.023,40.023,0,0,1,1.55-6.07,4.243,4.243,0,0,0-.73-2.56,3.16,3.16,0,0,0-1.78-1.23,3.071,3.071,0,0,0-2.14.28,4.432,4.432,0,0,0-1.89,1.94c-.45,1.23-.97,2.62-1.55,4.16s-1.24,3.1-1.98,4.69a46.461,46.461,0,0,1-2.45,4.63,24.836,24.836,0,0,1-2.96,4,12.7,12.7,0,0,1-3.5,2.72,7.737,7.737,0,0,1-4.09.87,2.208,2.208,0,0,1-1.46-1.52,10.275,10.275,0,0,1-.54-3.09,25.2,25.2,0,0,1,.17-4.07c.17-1.48.39-2.95.68-4.41s.59-2.85.93-4.16.65-2.42.95-3.32a2.831,2.831,0,0,0,0-2.72,3.242,3.242,0,0,0-1.86-1.46,4.046,4.046,0,0,0-2.48.03,2.867,2.867,0,0,0-1.86,1.74,43.889,43.889,0,0,0-1.75,5.17,54.549,54.549,0,0,0-1.27,5.93,43.279,43.279,0,0,0-.53,6.07v.38a25.27,25.27,0,0,1-2.34,4.93c-.96,1.42-2.04,2.04-3.25,1.85a1.989,1.989,0,0,1-1.04-1.57,12.8,12.8,0,0,1-.17-3.04c.06-1.2.2-2.55.42-4.07s.51-3.09.85-4.72.7-3.27,1.07-4.92.72-3.2,1.02-4.66a4.125,4.125,0,0,0-1.16-3.01,3.694,3.694,0,0,0-3.07-.82,4.568,4.568,0,0,0-2,1.47,6.916,6.916,0,0,0-1.05,2.3c-.15.49-.37,1.46-.67,2.92s-.69,3.14-1.16,5.03-1.03,3.87-1.66,5.93a42.149,42.149,0,0,1-2.15,5.59,15.769,15.769,0,0,1-2.59,4.02,3.322,3.322,0,0,1-3.05,1.24c-.6-.12-.98-.73-1.15-1.86a19.684,19.684,0,0,1-.09-4.16,53.06,53.06,0,0,1,.68-5.42c.34-1.97.68-3.83,1.04-5.59s.69-3.32.99-4.67.51-2.24.62-2.69a4.351,4.351,0,0,0-.73-2.62,3.127,3.127,0,0,0-1.78-1.23,3.071,3.071,0,0,0-2.14.28,4.432,4.432,0,0,0-1.89,1.94c-.19,1.01-.44,2.18-.74,3.51s-.59,2.7-.87,4.1-.55,2.78-.79,4.13-.42,2.53-.54,3.54c-.07.79-.16,1.75-.25,2.9s-.14,2.35-.14,3.62a25.151,25.151,0,0,0,.28,3.79,12.553,12.553,0,0,0,1.02,3.46,6.726,6.726,0,0,0,2.06,2.59,5.985,5.985,0,0,0,3.35,1.12,11.776,11.776,0,0,0,3.64-.31,8.9,8.9,0,0,0,2.82-1.32,12.261,12.261,0,0,0,2.31-2.14c.7-.82,1.38-1.72,2.06-2.69a8.492,8.492,0,0,0,2.48,3.31,6.645,6.645,0,0,0,3.22,1.41,6.732,6.732,0,0,0,3.44-.48,8.021,8.021,0,0,0,3.15-2.39,17.429,17.429,0,0,0,1.76-2.34,10.48,10.48,0,0,0,.75,1.16,7.039,7.039,0,0,0,3.76,2.47,11.154,11.154,0,0,0,4.96.23,15.722,15.722,0,0,0,4.62-1.63,21.672,21.672,0,0,0,4.09-2.84,25.931,25.931,0,0,0,3.3-3.45c-.04.86-.06,1.67-.06,2.44s-.01,1.6-.05,2.5a32.057,32.057,0,0,0-5.33,4.72,38.092,38.092,0,0,0-4.4,5.87,31.348,31.348,0,0,0-2.96,6.32,18.213,18.213,0,0,0-1.04,5.99,9.152,9.152,0,0,0,1.32,4.86,7.189,7.189,0,0,0,4.23,2.98,8.015,8.015,0,0,0,5.36.06,9.9,9.9,0,0,0,4.03-2.98,17.279,17.279,0,0,0,2.82-5.03,40.864,40.864,0,0,0,1.75-6.16,45,45,0,0,0,.82-6.29,45.863,45.863,0,0,0,0-5.51,24.491,24.491,0,0,0,7.95-5.11,32.516,32.516,0,0,0,5.13-6.52,2.581,2.581,0,0,0,.43-2.02,4.085,4.085,0,0,0-.96-2.03A2.856,2.856,0,0,0,278.39,95.47Z" fill="rgba(0,0,0,0)" stroke="rgba(0,0,0,0)" stroke-width="1"/>
          </g>
        </g>
        <g id="Group_36" data-name="Group 36">
          <path id="Path_35" data-name="Path 35" d="M351.91,90.1a23.537,23.537,0,0,1,.85-2.78,10.569,10.569,0,0,1,1.18-2.33,4.408,4.408,0,0,1,1.44-1.4,1.414,1.414,0,0,1,1.55.08,2.713,2.713,0,0,1,1.04,2.13,8.3,8.3,0,0,1-.39,3.49,9.137,9.137,0,0,1-2.12,3.48,7.345,7.345,0,0,1-4.11,2.14,7.851,7.851,0,0,1,.05-2.08Q351.58,91.54,351.91,90.1Zm17.26,4.98a1.439,1.439,0,0,0-1.07,1.18,16.649,16.649,0,0,1-1.44,3.68,19.76,19.76,0,0,1-2.43,3.57,18.352,18.352,0,0,1-3.24,2.98,12.066,12.066,0,0,1-3.78,1.85,5.1,5.1,0,0,1-3.27.14,4.142,4.142,0,0,1-2.06-1.63,7.933,7.933,0,0,1-1.1-2.78,20.561,20.561,0,0,1-.39-3.37,10.147,10.147,0,0,0,5.72-1.16,13.45,13.45,0,0,0,4.26-3.65,16.558,16.558,0,0,0,2.65-5.11,21.713,21.713,0,0,0,1.02-5.65,10.252,10.252,0,0,0-.79-4.47,6.984,6.984,0,0,0-2.29-2.83,6.605,6.605,0,0,0-3.3-1.18,8.757,8.757,0,0,0-3.78.5,9.331,9.331,0,0,0-3.92,2.56,15.936,15.936,0,0,0-2.67,4.1,26.087,26.087,0,0,0-1.7,5.03,46.766,46.766,0,0,0-.9,5.31c-.17,1.56-.26,3.06-.29,4.5-.08.19-.16.36-.24.56a36.13,36.13,0,0,1-2.03,3.9,14.6,14.6,0,0,1-2.57,3.21,3.064,3.064,0,0,1-2.93.9c-.61-.15-.93-.85-.99-2.08a31.394,31.394,0,0,1,.2-4.61c.18-1.84.4-3.82.65-5.96a54.711,54.711,0,0,0,.36-6.12,12.612,12.612,0,0,0-.96-4.86,10.769,10.769,0,0,0-2.62-3.88,8.285,8.285,0,0,0-3.86-2.05,7.2,7.2,0,0,0-4.74.67,9.85,9.85,0,0,0-4.03,3.32,41.354,41.354,0,0,0-2.74,4.49,13.373,13.373,0,0,0-1.32-3.34,10.936,10.936,0,0,0-2.15-2.7,9.505,9.505,0,0,0-2.84-1.8,8.771,8.771,0,0,0-3.33-.64,7.554,7.554,0,0,0-3.13.64,11.235,11.235,0,0,0-2.63,1.66,14.963,14.963,0,0,0-2.14,2.28,25.589,25.589,0,0,0-1.69,2.5c-.08-.98-.16-1.83-.25-2.56a6.265,6.265,0,0,0-.51-1.85,2.674,2.674,0,0,0-1.04-1.16,3.93,3.93,0,0,0-1.92-.39,3.194,3.194,0,0,0-1.24.25,3.526,3.526,0,0,0-1.1.71,2.972,2.972,0,0,0-.74,1.09,3.012,3.012,0,0,0-.14,1.49,8.272,8.272,0,0,0,.31,1.49,19.084,19.084,0,0,1,.48,2.28c.15.93.28,2.07.37,3.4s.12,2.96.08,4.89-.17,4.18-.42,6.77-.63,5.58-1.16,8.99a2.01,2.01,0,0,0,.91,1.91,4.72,4.72,0,0,0,4.76.39,2.333,2.333,0,0,0,1.33-1.96q.165-2.655.65-5.62.48-2.985,1.18-5.9t1.61-5.57a30.472,30.472,0,0,1,2-4.66,14.529,14.529,0,0,1,2.28-3.23,3.471,3.471,0,0,1,2.49-1.21,2.734,2.734,0,0,1,2.45,1.43,10.389,10.389,0,0,1,1.24,3.68,29.1,29.1,0,0,1,.34,4.92c-.02,1.78-.1,3.49-.23,5.14s-.28,3.12-.45,4.41-.29,2.19-.36,2.67a2.433,2.433,0,0,0,.98,2.05,4.311,4.311,0,0,0,2.2.9,3.669,3.669,0,0,0,2.29-.45,2.473,2.473,0,0,0,1.24-1.99,80.553,80.553,0,0,1,1.55-8.12,57.836,57.836,0,0,1,2.25-7.31,22.667,22.667,0,0,1,2.82-5.28,4.277,4.277,0,0,1,3.3-2.05c.6,0,1.07.41,1.38,1.23a9.62,9.62,0,0,1,.48,3.38,21.244,21.244,0,0,1-.25,3.23c-.17,1.1-.37,2.25-.59,3.43s-.43,2.38-.59,3.62a28.508,28.508,0,0,0-.26,3.88,23.25,23.25,0,0,0,.28,3.26,12.545,12.545,0,0,0,1.08,3.51,8.2,8.2,0,0,0,2.17,2.81,5.289,5.289,0,0,0,3.52,1.15,11.535,11.535,0,0,0,5.7-1.38,14.264,14.264,0,0,0,4.26-3.59c.06-.08.11-.16.17-.24.09.22.17.45.28.66a9.309,9.309,0,0,0,3.3,3.82,9.691,9.691,0,0,0,4.9,1.49,16.09,16.09,0,0,0,6.15-1.04,17.252,17.252,0,0,0,4.32-2.25,15.782,15.782,0,0,0,3.29-3.29,26.07,26.07,0,0,0,2.68-4.46q1.215-2.535,2.46-5.79a1.629,1.629,0,0,0-.43-1.6,3.438,3.438,0,0,0-1.58-.99A3.244,3.244,0,0,0,369.17,95.08Z" fill="#0d0c23"/>
          <g id="Group_35" data-name="Group 35">
            <path id="Path_36" data-name="Path 36" d="M351.91,90.1a23.537,23.537,0,0,1,.85-2.78,10.569,10.569,0,0,1,1.18-2.33,4.408,4.408,0,0,1,1.44-1.4,1.414,1.414,0,0,1,1.55.08,2.713,2.713,0,0,1,1.04,2.13,8.3,8.3,0,0,1-.39,3.49,9.137,9.137,0,0,1-2.12,3.48,7.345,7.345,0,0,1-4.11,2.14,7.851,7.851,0,0,1,.05-2.08Q351.58,91.54,351.91,90.1Zm17.26,4.98a1.439,1.439,0,0,0-1.07,1.18,16.649,16.649,0,0,1-1.44,3.68,19.76,19.76,0,0,1-2.43,3.57,18.352,18.352,0,0,1-3.24,2.98,12.066,12.066,0,0,1-3.78,1.85,5.1,5.1,0,0,1-3.27.14,4.142,4.142,0,0,1-2.06-1.63,7.933,7.933,0,0,1-1.1-2.78,20.561,20.561,0,0,1-.39-3.37,10.147,10.147,0,0,0,5.72-1.16,13.45,13.45,0,0,0,4.26-3.65,16.558,16.558,0,0,0,2.65-5.11,21.713,21.713,0,0,0,1.02-5.65,10.252,10.252,0,0,0-.79-4.47,6.984,6.984,0,0,0-2.29-2.83,6.605,6.605,0,0,0-3.3-1.18,8.757,8.757,0,0,0-3.78.5,9.331,9.331,0,0,0-3.92,2.56,15.936,15.936,0,0,0-2.67,4.1,26.087,26.087,0,0,0-1.7,5.03,46.766,46.766,0,0,0-.9,5.31c-.17,1.56-.26,3.06-.29,4.5-.08.19-.16.36-.24.56a36.13,36.13,0,0,1-2.03,3.9,14.6,14.6,0,0,1-2.57,3.21,3.064,3.064,0,0,1-2.93.9c-.61-.15-.93-.85-.99-2.08a31.394,31.394,0,0,1,.2-4.61c.18-1.84.4-3.82.65-5.96a54.711,54.711,0,0,0,.36-6.12,12.612,12.612,0,0,0-.96-4.86,10.769,10.769,0,0,0-2.62-3.88,8.285,8.285,0,0,0-3.86-2.05,7.2,7.2,0,0,0-4.74.67,9.85,9.85,0,0,0-4.03,3.32,41.354,41.354,0,0,0-2.74,4.49,13.373,13.373,0,0,0-1.32-3.34,10.936,10.936,0,0,0-2.15-2.7,9.505,9.505,0,0,0-2.84-1.8,8.771,8.771,0,0,0-3.33-.64,7.554,7.554,0,0,0-3.13.64,11.235,11.235,0,0,0-2.63,1.66,14.963,14.963,0,0,0-2.14,2.28,25.589,25.589,0,0,0-1.69,2.5c-.08-.98-.16-1.83-.25-2.56a6.265,6.265,0,0,0-.51-1.85,2.674,2.674,0,0,0-1.04-1.16,3.93,3.93,0,0,0-1.92-.39,3.194,3.194,0,0,0-1.24.25,3.526,3.526,0,0,0-1.1.71,2.972,2.972,0,0,0-.74,1.09,3.012,3.012,0,0,0-.14,1.49,8.272,8.272,0,0,0,.31,1.49,19.084,19.084,0,0,1,.48,2.28c.15.93.28,2.07.37,3.4s.12,2.96.08,4.89-.17,4.18-.42,6.77-.63,5.58-1.16,8.99a2.01,2.01,0,0,0,.91,1.91,4.72,4.72,0,0,0,4.76.39,2.333,2.333,0,0,0,1.33-1.96q.165-2.655.65-5.62.48-2.985,1.18-5.9t1.61-5.57a30.472,30.472,0,0,1,2-4.66,14.529,14.529,0,0,1,2.28-3.23,3.471,3.471,0,0,1,2.49-1.21,2.734,2.734,0,0,1,2.45,1.43,10.389,10.389,0,0,1,1.24,3.68,29.1,29.1,0,0,1,.34,4.92c-.02,1.78-.1,3.49-.23,5.14s-.28,3.12-.45,4.41-.29,2.19-.36,2.67a2.433,2.433,0,0,0,.98,2.05,4.311,4.311,0,0,0,2.2.9,3.669,3.669,0,0,0,2.29-.45,2.473,2.473,0,0,0,1.24-1.99,80.553,80.553,0,0,1,1.55-8.12,57.836,57.836,0,0,1,2.25-7.31,22.667,22.667,0,0,1,2.82-5.28,4.277,4.277,0,0,1,3.3-2.05c.6,0,1.07.41,1.38,1.23a9.62,9.62,0,0,1,.48,3.38,21.244,21.244,0,0,1-.25,3.23c-.17,1.1-.37,2.25-.59,3.43s-.43,2.38-.59,3.62a28.508,28.508,0,0,0-.26,3.88,23.25,23.25,0,0,0,.28,3.26,12.545,12.545,0,0,0,1.08,3.51,8.2,8.2,0,0,0,2.17,2.81,5.289,5.289,0,0,0,3.52,1.15,11.535,11.535,0,0,0,5.7-1.38,14.264,14.264,0,0,0,4.26-3.59c.06-.08.11-.16.17-.24.09.22.17.45.28.66a9.309,9.309,0,0,0,3.3,3.82,9.691,9.691,0,0,0,4.9,1.49,16.09,16.09,0,0,0,6.15-1.04,17.252,17.252,0,0,0,4.32-2.25,15.782,15.782,0,0,0,3.29-3.29,26.07,26.07,0,0,0,2.68-4.46q1.215-2.535,2.46-5.79a1.629,1.629,0,0,0-.43-1.6,3.438,3.438,0,0,0-1.58-.99A3.244,3.244,0,0,0,369.17,95.08Z" fill="rgba(0,0,0,0)" stroke="rgba(0,0,0,0)" stroke-width="1"/>
          </g>
        </g>
        <g id="Group_38" data-name="Group 38">
          <path id="Path_37" data-name="Path 37" d="M400.84,92.52c-.32,1.33-.73,2.71-1.22,4.13a18.985,18.985,0,0,1-1.8,3.85,9.713,9.713,0,0,1-2.45,2.72,4.517,4.517,0,0,1-3.19.85,1.789,1.789,0,0,1-1.38-1.24,7.683,7.683,0,0,1-.51-2.87,21.224,21.224,0,0,1,.31-3.82,23.152,23.152,0,0,1,1.04-4.07,20.405,20.405,0,0,1,1.72-3.68,8.483,8.483,0,0,1,2.34-2.62,4.789,4.789,0,0,1,2.91-.87,5.78,5.78,0,0,1,3.38,1.58c-.07.48-.21,1.28-.39,2.39S401.16,91.19,400.84,92.52Zm19,.45q-.93.255-1.32,1.71a18.3,18.3,0,0,1-1.02,3.71,24.326,24.326,0,0,1-1.94,4.05,12.9,12.9,0,0,1-2.66,3.17,4.3,4.3,0,0,1-3.18,1.15,2.18,2.18,0,0,1-1.97-1.43,8.719,8.719,0,0,1-.6-3.32,25.25,25.25,0,0,1,.4-4.49c.28-1.67.62-3.32,1.01-4.97s.8-3.24,1.22-4.75.75-2.8,1.01-3.85a2.508,2.508,0,0,0-.28-2.39,4.183,4.183,0,0,0-4.06-1.63,1.729,1.729,0,0,0-1.47,1.21,11.326,11.326,0,0,0-6.4-3.09,9.354,9.354,0,0,0-5.67,1.35,14.819,14.819,0,0,0-4.59,4.55,29.12,29.12,0,0,0-4.8,13.65,19.417,19.417,0,0,0,.48,6.66,10.239,10.239,0,0,0,2.79,4.92,7.59,7.59,0,0,0,5.45,1.91,7.108,7.108,0,0,0,2.93-.62,14.458,14.458,0,0,0,2.59-1.46,14.853,14.853,0,0,0,2.09-1.77c.6-.62,1.07-1.13,1.41-1.54a9.5,9.5,0,0,0,1.3,3.42,9.068,9.068,0,0,0,2.05,2.31,8.038,8.038,0,0,0,2.43,1.32,7.79,7.79,0,0,0,2.45.42,7.96,7.96,0,0,0,4.97-1.8,20.332,20.332,0,0,0,4.14-4.41,28.184,28.184,0,0,0,3.02-5.51,25.912,25.912,0,0,0,1.58-5.14,1.852,1.852,0,0,0-.14-1.77,3.461,3.461,0,0,0-1.41-1.38A2.434,2.434,0,0,0,419.84,92.97Z" fill="#0d0c23"/>
          <g id="Group_37" data-name="Group 37">
            <path id="Path_38" data-name="Path 38" d="M400.84,92.52c-.32,1.33-.73,2.71-1.22,4.13a18.985,18.985,0,0,1-1.8,3.85,9.713,9.713,0,0,1-2.45,2.72,4.517,4.517,0,0,1-3.19.85,1.789,1.789,0,0,1-1.38-1.24,7.683,7.683,0,0,1-.51-2.87,21.224,21.224,0,0,1,.31-3.82,23.152,23.152,0,0,1,1.04-4.07,20.405,20.405,0,0,1,1.72-3.68,8.483,8.483,0,0,1,2.34-2.62,4.789,4.789,0,0,1,2.91-.87,5.78,5.78,0,0,1,3.38,1.58c-.07.48-.21,1.28-.39,2.39S401.16,91.19,400.84,92.52Zm19,.45q-.93.255-1.32,1.71a18.3,18.3,0,0,1-1.02,3.71,24.326,24.326,0,0,1-1.94,4.05,12.9,12.9,0,0,1-2.66,3.17,4.3,4.3,0,0,1-3.18,1.15,2.18,2.18,0,0,1-1.97-1.43,8.719,8.719,0,0,1-.6-3.32,25.25,25.25,0,0,1,.4-4.49c.28-1.67.62-3.32,1.01-4.97s.8-3.24,1.22-4.75.75-2.8,1.01-3.85a2.508,2.508,0,0,0-.28-2.39,4.183,4.183,0,0,0-4.06-1.63,1.729,1.729,0,0,0-1.47,1.21,11.326,11.326,0,0,0-6.4-3.09,9.354,9.354,0,0,0-5.67,1.35,14.819,14.819,0,0,0-4.59,4.55,29.12,29.12,0,0,0-4.8,13.65,19.417,19.417,0,0,0,.48,6.66,10.239,10.239,0,0,0,2.79,4.92,7.59,7.59,0,0,0,5.45,1.91,7.108,7.108,0,0,0,2.93-.62,14.458,14.458,0,0,0,2.59-1.46,14.853,14.853,0,0,0,2.09-1.77c.6-.62,1.07-1.13,1.41-1.54a9.5,9.5,0,0,0,1.3,3.42,9.068,9.068,0,0,0,2.05,2.31,8.038,8.038,0,0,0,2.43,1.32,7.79,7.79,0,0,0,2.45.42,7.96,7.96,0,0,0,4.97-1.8,20.332,20.332,0,0,0,4.14-4.41,28.184,28.184,0,0,0,3.02-5.51,25.912,25.912,0,0,0,1.58-5.14,1.852,1.852,0,0,0-.14-1.77,3.461,3.461,0,0,0-1.41-1.38A2.434,2.434,0,0,0,419.84,92.97Z" fill="rgba(0,0,0,0)" stroke="rgba(0,0,0,0)" stroke-width="1"/>
          </g>
        </g>
        <g id="Group_40" data-name="Group 40">
          <path id="Path_39" data-name="Path 39" d="M521.67,127.42a3.26,3.26,0,0,1-2.54,1.38,1.488,1.488,0,0,1-1.46-1.01,8.923,8.923,0,0,1-.71-2.76,29.185,29.185,0,0,1-.17-3.76c.02-1.39.08-2.76.17-4.11s.21-2.6.34-3.76.23-2.06.31-2.7a4.872,4.872,0,0,1,3.19,1.66,9.969,9.969,0,0,1,1.94,3.4,15.185,15.185,0,0,1,.79,4.24,14.469,14.469,0,0,1-.36,4.19A8.691,8.691,0,0,1,521.67,127.42Zm-20.41,0a3.276,3.276,0,0,1-2.54,1.38,1.5,1.5,0,0,1-1.47-1.01,8.94,8.94,0,0,1-.7-2.76,27.484,27.484,0,0,1-.17-3.76c.01-1.39.07-2.76.17-4.11s.2-2.6.33-3.76.24-2.06.31-2.7a4.85,4.85,0,0,1,3.19,1.66,9.827,9.827,0,0,1,1.95,3.4,15.553,15.553,0,0,1,.79,4.24,14.456,14.456,0,0,1-.37,4.19A8.839,8.839,0,0,1,501.26,127.42ZM481.54,94.66a2.427,2.427,0,0,1-.53,1.32,5.416,5.416,0,0,1-1.53-1.74,12.1,12.1,0,0,1-1.41-3.18,8.834,8.834,0,0,1-.3-3.48,3.458,3.458,0,0,1,1.77-2.67.758.758,0,0,1,1.07.25,4.728,4.728,0,0,1,.74,1.71,17.336,17.336,0,0,1,.39,2.59,22.235,22.235,0,0,1,.06,2.81A15.884,15.884,0,0,1,481.54,94.66Zm-6.68,10.42a8.693,8.693,0,0,1-2.2,1.01,4.283,4.283,0,0,1-2.03.17,6.361,6.361,0,0,1-3.89-2.19,8.266,8.266,0,0,1-1.72-3.96,14.494,14.494,0,0,1,.08-4.86,17.924,17.924,0,0,1,1.53-4.81,14.92,14.92,0,0,1,2.59-3.82,6.462,6.462,0,0,1,3.33-1.99,19.474,19.474,0,0,0-.45,5.93,16.633,16.633,0,0,0,1.46,5.75,15.384,15.384,0,0,0,1.89,2.98,10.522,10.522,0,0,0,2.68,2.31,7.338,7.338,0,0,1-1.32,1.88A10.257,10.257,0,0,1,474.86,105.08Zm64.86-14.97a23.1,23.1,0,0,1,.84-2.79,11.031,11.031,0,0,1,1.19-2.33,4.408,4.408,0,0,1,1.44-1.4,1.414,1.414,0,0,1,1.55.08,2.719,2.719,0,0,1,1.04,2.14,8.269,8.269,0,0,1-.39,3.48,9.139,9.139,0,0,1-2.12,3.48,7.379,7.379,0,0,1-4.11,2.14,7.851,7.851,0,0,1,.05-2.08A25.183,25.183,0,0,1,539.72,90.11Zm22.73,0a23.1,23.1,0,0,1,.84-2.79,11.034,11.034,0,0,1,1.19-2.33,4.408,4.408,0,0,1,1.44-1.4,1.414,1.414,0,0,1,1.55.08,2.719,2.719,0,0,1,1.04,2.14,8.268,8.268,0,0,1-.39,3.48A9.138,9.138,0,0,1,566,92.77a7.375,7.375,0,0,1-4.12,2.14,8.386,8.386,0,0,1,.06-2.08A25.169,25.169,0,0,1,562.45,90.11Zm19.03,5.02a3.243,3.243,0,0,0-1.77-.05,1.45,1.45,0,0,0-1.08,1.18,16.9,16.9,0,0,1-1.43,3.68,19.419,19.419,0,0,1-2.43,3.57,18.324,18.324,0,0,1-3.24,2.98,12.173,12.173,0,0,1-3.78,1.85,5.1,5.1,0,0,1-3.27.14,4.1,4.1,0,0,1-2.06-1.63,7.932,7.932,0,0,1-1.1-2.78,19.529,19.529,0,0,1-.39-3.37,10.144,10.144,0,0,0,5.72-1.15,13.61,13.61,0,0,0,4.26-3.66,16.557,16.557,0,0,0,2.65-5.11,21.213,21.213,0,0,0,1.01-5.65,9.971,9.971,0,0,0-.79-4.47,6.884,6.884,0,0,0-2.28-2.83,6.605,6.605,0,0,0-3.3-1.18,8.757,8.757,0,0,0-3.78.5,9.269,9.269,0,0,0-3.92,2.56,16.23,16.23,0,0,0-2.68,4.1,26.768,26.768,0,0,0-1.69,5.03,46.76,46.76,0,0,0-.9,5.31q-.27,2.535-.3,4.86c-.15.31-.3.62-.46.93a19.413,19.413,0,0,1-2.43,3.57,18.32,18.32,0,0,1-3.24,2.98,12.066,12.066,0,0,1-3.78,1.85,5.1,5.1,0,0,1-3.27.14,4.1,4.1,0,0,1-2.06-1.63,7.932,7.932,0,0,1-1.1-2.78,19.523,19.523,0,0,1-.39-3.37,10.143,10.143,0,0,0,5.72-1.15,13.61,13.61,0,0,0,4.26-3.66,16.559,16.559,0,0,0,2.65-5.11,21.213,21.213,0,0,0,1.01-5.65,10.115,10.115,0,0,0-.78-4.47,6.984,6.984,0,0,0-2.29-2.83,6.605,6.605,0,0,0-3.3-1.18,8.757,8.757,0,0,0-3.78.5,9.269,9.269,0,0,0-3.92,2.56,16.23,16.23,0,0,0-2.68,4.1,26.768,26.768,0,0,0-1.69,5.03,46.76,46.76,0,0,0-.9,5.31c-.11.98-.18,1.94-.23,2.87-.36.31-.72.62-1.1.92a33.446,33.446,0,0,1-4.08,2.84,24.717,24.717,0,0,1-4.46,2.08,17.956,17.956,0,0,1-4.74.99c.35-3.74,3.15-33.59,3.5-37.32a2.24,2.24,0,0,0-.34-2.08,3.359,3.359,0,0,0-1.75-1.23,3.642,3.642,0,0,0-2.28.05,3.6,3.6,0,0,0-2,1.8q-.405,2.13-.82,5.84c-.28,2.48-.57,5.17-.85,8.1s-.56,5.94-.84,9.04-.53,6.02-.74,8.71c-.01.12-.01.23-.02.35-.33.28-.65.56-.99.83a33.557,33.557,0,0,1-4.09,2.84,24.4,24.4,0,0,1-4.46,2.08,17.967,17.967,0,0,1-4.73.99c.35-3.74,3.14-33.59,3.49-37.32a2.238,2.238,0,0,0-.33-2.08,3.44,3.44,0,0,0-1.75-1.23,3.672,3.672,0,0,0-2.29.05,3.635,3.635,0,0,0-2,1.8c-.26,1.42-.54,3.37-.82,5.84s-.56,5.17-.84,8.1-.57,5.94-.85,9.04-.53,6.02-.73,8.71c-.01.06-.01.11-.02.16a13.605,13.605,0,0,1-1.93.72,10.723,10.723,0,0,1-2.42.36,20.436,20.436,0,0,0,.36-2.25c.1-.82.17-1.68.23-2.58s.07-1.8.06-2.7-.07-1.72-.15-2.47a20.519,20.519,0,0,0-1.04-4.58,10.835,10.835,0,0,0-2.06-3.63,6.31,6.31,0,0,0-3.24-1.96,8.083,8.083,0,0,0-4.54.33,13.759,13.759,0,0,0-6.91.71,14.92,14.92,0,0,0-5.33,3.51,19.031,19.031,0,0,0-3.69,5.42,23.27,23.27,0,0,0-1.92,6.41,21.676,21.676,0,0,0-.22,2.77,16.419,16.419,0,0,1-5.03,6.13,13.908,13.908,0,0,1-3.18,1.8,15.222,15.222,0,0,1-2.82.85,8.129,8.129,0,0,1-2.82.05,4.7,4.7,0,0,1-2.48-1.29,4.988,4.988,0,0,1-1.39-2.53,17.648,17.648,0,0,1-.56-3.96,31.955,31.955,0,0,1,.17-4.64,27.316,27.316,0,0,1,.87-4.58,18.407,18.407,0,0,1,1.58-3.87,6.09,6.09,0,0,1,2.26-2.45,1.029,1.029,0,0,1,.9.87,6.088,6.088,0,0,1,.08,1.8c-.05.69-.14,1.41-.25,2.14a12.782,12.782,0,0,0-.17,1.82,4.526,4.526,0,0,0,1.1,2.36,3.2,3.2,0,0,0,1.84.99,2.974,2.974,0,0,0,2-.48,4.491,4.491,0,0,0,1.61-1.97.2.2,0,0,0,.16.06c.08-.72.72-6.43.79-7.14a3.053,3.053,0,0,0-.45-2.58,2.941,2.941,0,0,0-2.08-1.3,5.511,5.511,0,0,0-4.43-2.5,9.462,9.462,0,0,0-5.73,1.83,11.852,11.852,0,0,0-3.18,3.57,22.536,22.536,0,0,0-2.26,5.05,32.252,32.252,0,0,0-1.24,5.88,31.168,31.168,0,0,0-.14,6.01,24.786,24.786,0,0,0,1.04,5.51,12.5,12.5,0,0,0,2.29,4.32,7.4,7.4,0,0,0,2.82,2.22,10.752,10.752,0,0,0,3.3.88,12.191,12.191,0,0,0,3.41-.15,18.008,18.008,0,0,0,3.21-.87,30.64,30.64,0,0,0,4.06-1.85,25.162,25.162,0,0,0,4.01-2.7,21.77,21.77,0,0,0,1.94-1.8,15.26,15.26,0,0,0,.99,2.03,12.064,12.064,0,0,0,4.12,4.1,11.778,11.778,0,0,0,6.37,1.52,14.94,14.94,0,0,0,13.14-7.93,20.284,20.284,0,0,0,6.48-1.07c-.01.22-.03.46-.05.68-.15,1.99-.22,3.33-.22,4.05-.04,1.23-.13,2.76-.26,4.57s-.21,3.73-.25,5.74a56.438,56.438,0,0,0,.22,6.07,22.588,22.588,0,0,0,1.19,5.56,11.8,11.8,0,0,0,2.56,4.24,7.026,7.026,0,0,0,4.38,2.08,6.9,6.9,0,0,0,4.96-1.01,10.4,10.4,0,0,0,3.38-3.85,18.4,18.4,0,0,0,1.84-5.65,27.7,27.7,0,0,0,.31-6.43,24.9,24.9,0,0,0-1.19-6.1,13.044,13.044,0,0,0-2.65-4.72,11.514,11.514,0,0,0,2.43-1.07c.93-.52,1.9-1.11,2.9-1.77.25-.16.49-.33.73-.49-.09,1.32-.14,2.27-.14,2.83-.03,1.23-.12,2.76-.25,4.57s-.22,3.73-.25,5.74a53.966,53.966,0,0,0,.22,6.07,22.594,22.594,0,0,0,1.18,5.56,11.964,11.964,0,0,0,2.57,4.24,7.025,7.025,0,0,0,4.37,2.08,6.894,6.894,0,0,0,4.96-1.01,10.428,10.428,0,0,0,3.39-3.85,18.667,18.667,0,0,0,1.83-5.65,27.164,27.164,0,0,0,.31-6.43,24.436,24.436,0,0,0-1.18-6.1,13.044,13.044,0,0,0-2.65-4.72,11.467,11.467,0,0,0,2.42-1.07q1.41-.78,2.91-1.77c.51-.34,1.03-.69,1.54-1.05a14.249,14.249,0,0,0,1.28,4.79,9.166,9.166,0,0,0,3.3,3.82,9.69,9.69,0,0,0,4.9,1.49,16.09,16.09,0,0,0,6.15-1.04,17.012,17.012,0,0,0,4.31-2.25,15.774,15.774,0,0,0,3.3-3.28c.06-.08.11-.16.17-.24a11.167,11.167,0,0,0,.6,1.5,9.216,9.216,0,0,0,3.29,3.82,9.759,9.759,0,0,0,4.91,1.49,16.09,16.09,0,0,0,6.15-1.04,17.01,17.01,0,0,0,4.31-2.25,16.265,16.265,0,0,0,3.3-3.28,26.571,26.571,0,0,0,2.68-4.47q1.215-2.535,2.46-5.79a1.652,1.652,0,0,0-.43-1.6A3.49,3.49,0,0,0,581.48,95.13Z" fill="#0d0c23"/>
          <g id="Group_39" data-name="Group 39">
            <path id="Path_40" data-name="Path 40" d="M521.67,127.42a3.26,3.26,0,0,1-2.54,1.38,1.488,1.488,0,0,1-1.46-1.01,8.923,8.923,0,0,1-.71-2.76,29.185,29.185,0,0,1-.17-3.76c.02-1.39.08-2.76.17-4.11s.21-2.6.34-3.76.23-2.06.31-2.7a4.872,4.872,0,0,1,3.19,1.66,9.969,9.969,0,0,1,1.94,3.4,15.185,15.185,0,0,1,.79,4.24,14.469,14.469,0,0,1-.36,4.19A8.691,8.691,0,0,1,521.67,127.42Zm-20.41,0a3.276,3.276,0,0,1-2.54,1.38,1.5,1.5,0,0,1-1.47-1.01,8.94,8.94,0,0,1-.7-2.76,27.484,27.484,0,0,1-.17-3.76c.01-1.39.07-2.76.17-4.11s.2-2.6.33-3.76.24-2.06.31-2.7a4.85,4.85,0,0,1,3.19,1.66,9.827,9.827,0,0,1,1.95,3.4,15.553,15.553,0,0,1,.79,4.24,14.456,14.456,0,0,1-.37,4.19A8.839,8.839,0,0,1,501.26,127.42ZM481.54,94.66a2.427,2.427,0,0,1-.53,1.32,5.416,5.416,0,0,1-1.53-1.74,12.1,12.1,0,0,1-1.41-3.18,8.834,8.834,0,0,1-.3-3.48,3.458,3.458,0,0,1,1.77-2.67.758.758,0,0,1,1.07.25,4.728,4.728,0,0,1,.74,1.71,17.336,17.336,0,0,1,.39,2.59,22.235,22.235,0,0,1,.06,2.81A15.884,15.884,0,0,1,481.54,94.66Zm-6.68,10.42a8.693,8.693,0,0,1-2.2,1.01,4.283,4.283,0,0,1-2.03.17,6.361,6.361,0,0,1-3.89-2.19,8.266,8.266,0,0,1-1.72-3.96,14.494,14.494,0,0,1,.08-4.86,17.924,17.924,0,0,1,1.53-4.81,14.92,14.92,0,0,1,2.59-3.82,6.462,6.462,0,0,1,3.33-1.99,19.474,19.474,0,0,0-.45,5.93,16.633,16.633,0,0,0,1.46,5.75,15.384,15.384,0,0,0,1.89,2.98,10.522,10.522,0,0,0,2.68,2.31,7.338,7.338,0,0,1-1.32,1.88A10.257,10.257,0,0,1,474.86,105.08Zm64.86-14.97a23.1,23.1,0,0,1,.84-2.79,11.031,11.031,0,0,1,1.19-2.33,4.408,4.408,0,0,1,1.44-1.4,1.414,1.414,0,0,1,1.55.08,2.719,2.719,0,0,1,1.04,2.14,8.269,8.269,0,0,1-.39,3.48,9.139,9.139,0,0,1-2.12,3.48,7.379,7.379,0,0,1-4.11,2.14,7.851,7.851,0,0,1,.05-2.08A25.183,25.183,0,0,1,539.72,90.11Zm22.73,0a23.1,23.1,0,0,1,.84-2.79,11.034,11.034,0,0,1,1.19-2.33,4.408,4.408,0,0,1,1.44-1.4,1.414,1.414,0,0,1,1.55.08,2.719,2.719,0,0,1,1.04,2.14,8.268,8.268,0,0,1-.39,3.48A9.138,9.138,0,0,1,566,92.77a7.375,7.375,0,0,1-4.12,2.14,8.386,8.386,0,0,1,.06-2.08A25.169,25.169,0,0,1,562.45,90.11Zm19.03,5.02a3.243,3.243,0,0,0-1.77-.05,1.45,1.45,0,0,0-1.08,1.18,16.9,16.9,0,0,1-1.43,3.68,19.419,19.419,0,0,1-2.43,3.57,18.324,18.324,0,0,1-3.24,2.98,12.173,12.173,0,0,1-3.78,1.85,5.1,5.1,0,0,1-3.27.14,4.1,4.1,0,0,1-2.06-1.63,7.932,7.932,0,0,1-1.1-2.78,19.529,19.529,0,0,1-.39-3.37,10.144,10.144,0,0,0,5.72-1.15,13.61,13.61,0,0,0,4.26-3.66,16.557,16.557,0,0,0,2.65-5.11,21.213,21.213,0,0,0,1.01-5.65,9.971,9.971,0,0,0-.79-4.47,6.884,6.884,0,0,0-2.28-2.83,6.605,6.605,0,0,0-3.3-1.18,8.757,8.757,0,0,0-3.78.5,9.269,9.269,0,0,0-3.92,2.56,16.23,16.23,0,0,0-2.68,4.1,26.768,26.768,0,0,0-1.69,5.03,46.76,46.76,0,0,0-.9,5.31q-.27,2.535-.3,4.86c-.15.31-.3.62-.46.93a19.413,19.413,0,0,1-2.43,3.57,18.32,18.32,0,0,1-3.24,2.98,12.066,12.066,0,0,1-3.78,1.85,5.1,5.1,0,0,1-3.27.14,4.1,4.1,0,0,1-2.06-1.63,7.932,7.932,0,0,1-1.1-2.78,19.523,19.523,0,0,1-.39-3.37,10.143,10.143,0,0,0,5.72-1.15,13.61,13.61,0,0,0,4.26-3.66,16.559,16.559,0,0,0,2.65-5.11,21.213,21.213,0,0,0,1.01-5.65,10.115,10.115,0,0,0-.78-4.47,6.984,6.984,0,0,0-2.29-2.83,6.605,6.605,0,0,0-3.3-1.18,8.757,8.757,0,0,0-3.78.5,9.269,9.269,0,0,0-3.92,2.56,16.23,16.23,0,0,0-2.68,4.1,26.768,26.768,0,0,0-1.69,5.03,46.76,46.76,0,0,0-.9,5.31c-.11.98-.18,1.94-.23,2.87-.36.31-.72.62-1.1.92a33.446,33.446,0,0,1-4.08,2.84,24.717,24.717,0,0,1-4.46,2.08,17.956,17.956,0,0,1-4.74.99c.35-3.74,3.15-33.59,3.5-37.32a2.24,2.24,0,0,0-.34-2.08,3.359,3.359,0,0,0-1.75-1.23,3.642,3.642,0,0,0-2.28.05,3.6,3.6,0,0,0-2,1.8q-.405,2.13-.82,5.84c-.28,2.48-.57,5.17-.85,8.1s-.56,5.94-.84,9.04-.53,6.02-.74,8.71c-.01.12-.01.23-.02.35-.33.28-.65.56-.99.83a33.557,33.557,0,0,1-4.09,2.84,24.4,24.4,0,0,1-4.46,2.08,17.967,17.967,0,0,1-4.73.99c.35-3.74,3.14-33.59,3.49-37.32a2.238,2.238,0,0,0-.33-2.08,3.44,3.44,0,0,0-1.75-1.23,3.672,3.672,0,0,0-2.29.05,3.635,3.635,0,0,0-2,1.8c-.26,1.42-.54,3.37-.82,5.84s-.56,5.17-.84,8.1-.57,5.94-.85,9.04-.53,6.02-.73,8.71c-.01.06-.01.11-.02.16a13.605,13.605,0,0,1-1.93.72,10.723,10.723,0,0,1-2.42.36,20.436,20.436,0,0,0,.36-2.25c.1-.82.17-1.68.23-2.58s.07-1.8.06-2.7-.07-1.72-.15-2.47a20.519,20.519,0,0,0-1.04-4.58,10.835,10.835,0,0,0-2.06-3.63,6.31,6.31,0,0,0-3.24-1.96,8.083,8.083,0,0,0-4.54.33,13.759,13.759,0,0,0-6.91.71,14.92,14.92,0,0,0-5.33,3.51,19.031,19.031,0,0,0-3.69,5.42,23.27,23.27,0,0,0-1.92,6.41,21.676,21.676,0,0,0-.22,2.77,16.419,16.419,0,0,1-5.03,6.13,13.908,13.908,0,0,1-3.18,1.8,15.222,15.222,0,0,1-2.82.85,8.129,8.129,0,0,1-2.82.05,4.7,4.7,0,0,1-2.48-1.29,4.988,4.988,0,0,1-1.39-2.53,17.648,17.648,0,0,1-.56-3.96,31.955,31.955,0,0,1,.17-4.64,27.316,27.316,0,0,1,.87-4.58,18.407,18.407,0,0,1,1.58-3.87,6.09,6.09,0,0,1,2.26-2.45,1.029,1.029,0,0,1,.9.87,6.088,6.088,0,0,1,.08,1.8c-.05.69-.14,1.41-.25,2.14a12.782,12.782,0,0,0-.17,1.82,4.526,4.526,0,0,0,1.1,2.36,3.2,3.2,0,0,0,1.84.99,2.974,2.974,0,0,0,2-.48,4.491,4.491,0,0,0,1.61-1.97.2.2,0,0,0,.16.06c.08-.72.72-6.43.79-7.14a3.053,3.053,0,0,0-.45-2.58,2.941,2.941,0,0,0-2.08-1.3,5.511,5.511,0,0,0-4.43-2.5,9.462,9.462,0,0,0-5.73,1.83,11.852,11.852,0,0,0-3.18,3.57,22.536,22.536,0,0,0-2.26,5.05,32.252,32.252,0,0,0-1.24,5.88,31.168,31.168,0,0,0-.14,6.01,24.786,24.786,0,0,0,1.04,5.51,12.5,12.5,0,0,0,2.29,4.32,7.4,7.4,0,0,0,2.82,2.22,10.752,10.752,0,0,0,3.3.88,12.191,12.191,0,0,0,3.41-.15,18.008,18.008,0,0,0,3.21-.87,30.64,30.64,0,0,0,4.06-1.85,25.162,25.162,0,0,0,4.01-2.7,21.77,21.77,0,0,0,1.94-1.8,15.26,15.26,0,0,0,.99,2.03,12.064,12.064,0,0,0,4.12,4.1,11.778,11.778,0,0,0,6.37,1.52,14.94,14.94,0,0,0,13.14-7.93,20.284,20.284,0,0,0,6.48-1.07c-.01.22-.03.46-.05.68-.15,1.99-.22,3.33-.22,4.05-.04,1.23-.13,2.76-.26,4.57s-.21,3.73-.25,5.74a56.438,56.438,0,0,0,.22,6.07,22.588,22.588,0,0,0,1.19,5.56,11.8,11.8,0,0,0,2.56,4.24,7.026,7.026,0,0,0,4.38,2.08,6.9,6.9,0,0,0,4.96-1.01,10.4,10.4,0,0,0,3.38-3.85,18.4,18.4,0,0,0,1.84-5.65,27.7,27.7,0,0,0,.31-6.43,24.9,24.9,0,0,0-1.19-6.1,13.044,13.044,0,0,0-2.65-4.72,11.514,11.514,0,0,0,2.43-1.07c.93-.52,1.9-1.11,2.9-1.77.25-.16.49-.33.73-.49-.09,1.32-.14,2.27-.14,2.83-.03,1.23-.12,2.76-.25,4.57s-.22,3.73-.25,5.74a53.966,53.966,0,0,0,.22,6.07,22.594,22.594,0,0,0,1.18,5.56,11.964,11.964,0,0,0,2.57,4.24,7.025,7.025,0,0,0,4.37,2.08,6.894,6.894,0,0,0,4.96-1.01,10.428,10.428,0,0,0,3.39-3.85,18.667,18.667,0,0,0,1.83-5.65,27.164,27.164,0,0,0,.31-6.43,24.436,24.436,0,0,0-1.18-6.1,13.044,13.044,0,0,0-2.65-4.72,11.467,11.467,0,0,0,2.42-1.07q1.41-.78,2.91-1.77c.51-.34,1.03-.69,1.54-1.05a14.249,14.249,0,0,0,1.28,4.79,9.166,9.166,0,0,0,3.3,3.82,9.69,9.69,0,0,0,4.9,1.49,16.09,16.09,0,0,0,6.15-1.04,17.012,17.012,0,0,0,4.31-2.25,15.774,15.774,0,0,0,3.3-3.28c.06-.08.11-.16.17-.24a11.167,11.167,0,0,0,.6,1.5,9.216,9.216,0,0,0,3.29,3.82,9.759,9.759,0,0,0,4.91,1.49,16.09,16.09,0,0,0,6.15-1.04,17.01,17.01,0,0,0,4.31-2.25,16.265,16.265,0,0,0,3.3-3.28,26.571,26.571,0,0,0,2.68-4.47q1.215-2.535,2.46-5.79a1.652,1.652,0,0,0-.43-1.6A3.49,3.49,0,0,0,581.48,95.13Z" fill="rgba(0,0,0,0)" stroke="rgba(0,0,0,0)" stroke-width="1"/>
          </g>
        </g>
      </g>
    </g>
  </g>
</svg>
