<?xml version="1.0" encoding="UTF-8" standalone="no"?>
<!DOCTYPE svg PUBLIC "-//W3C//DTD SVG 1.1//EN" "http://www.w3.org/Graphics/SVG/1.1/DTD/svg11.dtd">
<svg version="1.1" xmlns="http://www.w3.org/2000/svg" xmlns:xlink="http://www.w3.org/1999/xlink" preserveAspectRatio="xMidYMid meet" viewBox="0 0 640 186.35" width="640" height="186.35"><defs><path d="M28.76 0C87.01 0 552.99 0 611.24 0C627.12 0 640 13.35 640 29.82C640 42.49 640 143.86 640 156.54C640 173 627.12 186.35 611.24 186.35C552.99 186.35 87.01 186.35 28.76 186.35C12.88 186.35 0 173 0 156.54C0 148.09 0 105.85 0 29.82C8.59 9.94 18.17 0 28.76 0Z" id="e3FHBqhWgp"></path><path d="M128.76 59.14C128.65 59.11 128.59 59.09 128.57 59.09C128.65 59.15 128.74 59.19 128.84 59.19C128.83 59.18 128.8 59.17 128.76 59.14Z" id="b7YVrOK48m"></path><path d="M129.91 67.45L129.99 67.42L129.91 67.45Z" id="b2svGX0Ax"></path><path d="M128.84 59.17C128.84 59.18 128.84 59.18 128.84 59.19C128.85 59.19 128.86 59.18 128.87 59.18C128.86 59.18 128.85 59.17 128.84 59.17Z" id="a6BU9Um8lq"></path><path d="M128.85 59.19L128.85 59.19L128.84 59.19L128.85 59.19Z" id="b1WjoGhTdl"></path><path d="M130.06 67.33L130.11 67.3C130.13 67.27 130.15 67.26 130.15 67.25C130.07 67.29 129.99 67.34 129.92 67.41C129.94 67.4 129.99 67.37 130.06 67.33Z" id="bFaa7Oupe"></path><path d="M128.93 59.25C128.88 59.22 128.85 59.2 128.84 59.2C128.89 59.28 128.97 59.35 129.06 59.37C129.05 59.36 129 59.31 128.93 59.25Z" id="d3V5RBbFig"></path><path d="M96.05 139.43C96.06 139.42 96.13 139.38 96.14 139.38C96.19 139.33 96.27 139.26 96.32 139.22C96.22 139.27 96.12 139.34 96.05 139.43Z" id="bb8liTGAO"></path><path d="M115.29 135.81C115.29 135.77 115.31 135.74 115.31 135.7C115.32 135.63 115.33 135.56 115.34 135.48C115.34 135.37 115.28 135.39 115.29 135.81Z" id="crqQWP2Tc"></path><path d="M113.11 139.43C113.12 139.42 113.18 139.38 113.19 139.38C113.24 139.33 113.32 139.26 113.37 139.22C113.27 139.27 113.18 139.34 113.11 139.43Z" id="g5qpiRUnm"></path><path d="M82.64 139.98C82.72 140.03 82.81 140.07 82.86 140.1C82.87 140.1 82.89 140.1 82.92 140.11C82.8 140.04 82.71 140 82.64 139.98Z" id="e1aBa6Qyx3"></path><path d="M79.8 136.88C79.84 136.99 79.88 137.11 79.91 137.22C79.91 137.22 79.91 137.23 79.91 137.23C79.88 137.07 79.84 136.95 79.8 136.88Z" id="akPfOrZoc"></path><path d="M85.23 89.39C82.69 89.38 80.15 89.03 77.7 88.35C78.12 92.67 81.49 127.24 81.91 131.56C82.06 133.37 82.88 135.05 84.21 136.28C85.55 137.51 87.29 138.19 89.11 138.19C89.11 138.19 95.07 138.5 97.07 138.5C99.21 138.5 105.63 138.19 105.63 138.19C107.45 138.19 109.19 137.5 110.53 136.28C111.86 135.05 112.68 133.37 112.83 131.56C113.28 126.79 116.89 88.58 117.34 83.81C115.32 83.12 113.29 82.66 111 82.66C107.03 82.66 103.84 84.03 100.15 85.61C96.01 87.38 91.32 89.39 85.23 89.39Z" id="cdAFX1qk4"></path><path d="M64.75 67.24C64.78 67.26 64.8 67.26 64.8 67.27C64.76 67.23 64.72 67.2 64.68 67.17C64.69 67.18 64.71 67.2 64.75 67.24Z" id="bB1WuSue6"></path><path d="M136.18 59.99C135.61 57.12 134.32 54.41 131.37 53.37C130.43 53.04 129.36 52.9 128.63 52.21C127.91 51.52 127.69 50.46 127.53 49.47C127.22 47.65 126.93 45.84 126.61 44.03C126.33 42.47 126.12 40.72 125.4 39.29C124.47 37.37 122.54 36.25 120.63 35.51C119.64 35.14 118.64 34.83 117.62 34.58C112.83 33.31 107.79 32.85 102.86 32.58C96.94 32.26 91 32.36 85.1 32.88C80.71 33.28 76.08 33.76 71.9 35.28C70.37 35.84 68.8 36.51 67.64 37.69C66.22 39.14 65.75 41.38 66.79 43.18C67.53 44.47 68.78 45.37 70.11 45.97C71.84 46.74 73.65 47.33 75.5 47.73C80.66 48.87 86.01 49.31 91.28 49.51C97.12 49.74 102.97 49.55 108.79 48.93C110.23 48.78 111.66 48.59 113.09 48.36C114.78 48.11 115.87 45.9 115.37 44.36C114.77 42.52 113.17 41.81 111.37 42.09C111.1 42.13 110.83 42.17 110.57 42.21C110.55 42.21 110.39 42.23 110.37 42.24C109.76 42.31 109.15 42.39 108.54 42.45C107.27 42.59 106 42.7 104.73 42.79C101.88 42.99 99.03 43.08 96.17 43.08C93.37 43.08 90.56 43 87.76 42.82C86.49 42.73 85.21 42.63 83.94 42.5C83.36 42.44 82.79 42.38 82.21 42.3C82.17 42.3 81.99 42.28 81.66 42.23L81.54 42.22C81.2 42.17 81.01 42.14 80.97 42.14C79.81 41.96 78.65 41.76 77.5 41.52C77.38 41.49 77.28 41.43 77.21 41.33C77.13 41.24 77.09 41.12 77.09 41.01C77.09 40.89 77.13 40.77 77.21 40.68C77.28 40.59 77.38 40.52 77.5 40.5C77.5 40.5 77.52 40.5 77.52 40.5C78.52 40.28 79.52 40.1 80.53 39.94C80.86 39.89 81.2 39.84 81.54 39.79C81.54 39.79 81.55 39.79 81.55 39.79C82.18 39.75 82.81 39.63 83.44 39.56C88.9 38.99 94.39 38.8 99.88 38.98C102.54 39.06 105.21 39.21 107.86 39.48C108.43 39.54 109 39.6 109.56 39.67C109.78 39.7 110 39.73 110.22 39.76C110.26 39.76 110.61 39.82 110.66 39.82C111.94 40.01 113.22 40.24 114.49 40.52C116.37 40.93 118.78 41.06 119.62 43.12C119.89 43.77 120.01 44.5 120.15 45.19C120.17 45.28 120.32 45.98 120.34 46.06C120.35 46.08 120.35 46.1 120.35 46.11C120.8 48.18 121.24 50.24 121.68 52.31C121.72 52.46 121.72 52.62 121.69 52.77C121.66 52.93 121.59 53.07 121.5 53.2C121.41 53.33 121.3 53.43 121.17 53.52C121.03 53.6 120.88 53.65 120.73 53.67C120.73 53.67 120.72 53.67 120.72 53.67L120.45 53.71C120.29 53.73 120.2 53.74 120.18 53.75C119.33 53.86 118.48 53.96 117.63 54.06C115.95 54.25 114.27 54.41 112.59 54.55C109.25 54.83 105.9 55.01 102.54 55.1C100.83 55.14 99.12 55.16 97.42 55.16C90.61 55.16 83.82 54.76 77.06 53.98C76.33 53.89 75.6 53.8 74.87 53.7C75.44 53.78 74.46 53.65 74.26 53.62C73.79 53.55 73.33 53.49 72.86 53.42C71.3 53.18 69.75 52.89 68.19 52.64C66.31 52.33 64.51 52.49 62.81 53.42C61.41 54.18 60.28 55.35 59.56 56.78C58.83 58.3 58.61 59.95 58.28 61.58C57.95 63.21 57.44 64.97 57.64 66.65C58.05 70.26 60.58 73.2 64.22 73.86C67.64 74.48 71.07 74.98 74.52 75.41C88.07 77.06 101.75 77.26 115.34 76C116.44 75.89 117.55 75.78 118.65 75.66C119 75.62 119.35 75.66 119.67 75.78C120 75.89 120.3 76.08 120.54 76.32C120.79 76.57 120.98 76.86 121.09 77.19C121.21 77.51 121.25 77.86 121.22 78.21C121.18 78.54 120.91 81.22 120.87 81.55C120.18 88.31 119.49 95.07 118.79 101.82C118.07 108.92 117.34 116.01 116.61 123.11C116.4 125.1 116.2 127.1 115.99 129.1C115.79 131.07 115.76 133.09 115.39 135.04C114.8 138.09 112.73 139.97 109.71 140.66C106.95 141.29 104.12 141.62 101.29 141.64C98.14 141.66 95 141.52 91.86 141.54C88.5 141.55 84.39 141.25 81.8 138.75C79.52 136.55 79.21 133.12 78.9 130.15C78.48 126.21 78.07 122.28 77.67 118.35C77.52 116.89 76.76 109.6 75.39 96.49C74.51 88 74.02 83.28 73.92 82.34C73.89 82.1 73.87 81.87 73.84 81.64C73.67 79.95 72.47 78.3 70.59 78.38C68.98 78.46 67.15 79.83 67.34 81.64C67.41 82.34 67.77 85.83 68.43 92.13C69.78 105.14 70.54 112.37 70.69 113.82C71.33 119.98 71.97 126.15 72.61 132.31C72.74 133.49 72.85 134.68 72.98 135.86C73.69 142.31 78.62 145.79 84.72 146.77C88.29 147.34 91.94 147.46 95.55 147.52C100.19 147.59 104.87 147.77 109.43 146.93C116.19 145.69 121.26 141.18 121.99 134.18C122.19 132.16 122.4 130.13 122.61 128.11C123.29 121.43 123.98 114.74 124.66 108.05C124.81 106.6 125.56 99.31 126.9 86.2C127.52 80.2 127.86 76.86 127.93 76.19C127.98 75.69 128.19 75.23 128.53 74.86C128.87 74.49 129.31 74.24 129.8 74.15C131.74 73.77 133.58 73.13 134.96 71.66C137.15 69.31 137.58 66.26 136.81 63.18C136.68 62.54 136.24 60.31 136.18 59.99ZM64.07 65.7C64.06 65.52 64.07 65.36 64.12 65.34C64.15 65.33 64.09 65.58 64.07 65.7ZM64.41 66.92C64.34 66.85 64.3 66.8 64.3 66.79C64.3 66.79 64.3 66.79 64.3 66.79C64.35 66.83 64.38 66.87 64.41 66.92ZM64.49 67.04C64.49 67.04 64.49 67.04 64.49 67.04C64.56 67.16 64.56 67.16 64.49 67.04ZM64.87 67.34C64.87 67.35 64.89 67.36 64.89 67.37C64.88 67.36 64.87 67.35 64.86 67.34C64.86 67.34 64.86 67.34 64.86 67.34C64.86 67.34 64.87 67.34 64.87 67.34ZM126.94 68.01C115.35 69.73 103.59 70.6 91.87 70.22C83.48 69.93 75.19 69 66.88 67.82C66.07 67.71 65.19 67.56 64.63 66.96C63.57 65.83 64.09 63.55 64.37 62.19C64.62 60.93 65.1 59.26 66.59 59.09C68.91 58.81 71.61 59.79 73.91 60.14C76.68 60.57 79.46 60.9 82.25 61.16C94.15 62.24 106.26 62.07 118.11 60.49C120.27 60.2 122.42 59.86 124.56 59.48C126.48 59.13 128.59 58.49 129.75 60.47C130.54 61.82 130.65 63.62 130.52 65.14C130.49 65.81 130.2 66.43 129.71 66.89C129.71 66.89 129.71 66.89 129.71 66.89C128.55 67.53 127.63 67.91 126.94 68.01Z" id="aPkHOaJ6f"></path><path d="M197.23 102.47C196.05 103.42 194.66 104.2 193.08 104.8C191.51 105.4 189.92 105.8 188.32 106.01C186.72 106.21 185.17 106.2 183.67 105.95C182.16 105.71 180.88 105.21 179.83 104.46C179.95 103.23 180.9 93.39 181.02 92.15C182.11 91.78 183.48 91.4 185.13 91C186.79 90.61 188.49 90.33 190.24 90.16C191.99 89.99 193.64 90.01 195.2 90.22C196.76 90.42 197.99 90.92 198.89 91.71C199.38 92.15 199.8 92.64 200.13 93.17C200.47 93.69 200.68 94.23 200.76 94.8C200.94 96.37 200.7 97.8 200.02 99.1C199.34 100.39 198.41 101.51 197.23 102.47ZM185.67 71.59C186.78 71.21 187.91 70.95 189.08 70.8C190.24 70.65 191.38 70.63 192.49 70.74C193.6 70.86 194.58 71.17 195.43 71.67C196.27 72.18 196.9 72.91 197.31 73.86C197.73 74.82 197.84 76.03 197.65 77.49C197.5 78.65 197.04 79.63 196.27 80.44C195.5 81.24 194.56 81.92 193.45 82.46C192.34 83.01 191.17 83.44 189.93 83.75C188.68 84.07 187.49 84.31 186.35 84.46C185.2 84.61 184.2 84.7 183.36 84.74C182.51 84.77 181.95 84.79 181.69 84.79C181.77 84 182.14 80.03 182.82 72.88C183.98 72.27 184.93 71.84 185.67 71.59ZM203.69 87.69C202.67 86.69 201.47 85.97 200.08 85.52C200.68 85.04 201.27 84.27 201.86 83.22C202.44 82.17 202.94 81.03 203.35 79.79C203.76 78.55 204.05 77.31 204.2 76.05C204.34 74.8 204.29 73.72 204.03 72.82C203.39 70.58 202.38 68.81 201.01 67.54C199.64 66.27 198.04 65.39 196.21 64.9C194.39 64.41 192.38 64.31 190.18 64.59C187.98 64.87 185.73 65.42 183.44 66.25C183.44 66.06 183.46 65.86 183.5 65.66C183.53 65.45 183.55 65.24 183.55 65.01C183.55 64.45 183.27 63.96 182.71 63.55C182.14 63.14 181.5 62.9 180.76 62.82C180.03 62.75 179.31 62.9 178.62 63.3C177.92 63.69 177.44 64.41 177.18 65.46C176.88 68.83 176.58 72.34 176.28 75.97C175.98 79.6 175.66 83.28 175.32 86.99C174.98 90.69 174.64 94.37 174.3 98.03C173.97 101.68 173.63 105.19 173.29 108.56C173.4 109.58 173.68 110.36 174.13 110.92C174.59 111.49 175.11 111.82 175.71 111.94C176.31 112.05 176.94 111.94 177.6 111.63C178.26 111.31 178.83 110.75 179.32 109.97C180.83 110.79 182.52 111.33 184.4 111.57C186.28 111.81 188.19 111.81 190.12 111.57C192.06 111.33 193.97 110.87 195.85 110.19C197.73 109.52 199.44 108.68 200.98 107.67C202.52 106.65 203.82 105.5 204.87 104.21C205.92 102.92 206.62 101.52 206.96 100.02C207.3 98.49 207.39 96.95 207.24 95.41C207.09 93.88 206.71 92.46 206.11 91.14C205.51 89.83 204.7 88.68 203.69 87.69Z" id="a3RbAAL806"></path><path d="M260.26 124.72C259.89 126.09 259.44 127.33 258.94 128.46C258.43 129.58 257.87 130.49 257.25 131.18C256.62 131.87 255.96 132.16 255.24 132.05C254.68 131.98 254.32 131.62 254.17 130.99C254.02 130.35 254.02 129.56 254.17 128.63C254.32 127.69 254.61 126.63 255.04 125.45C255.48 124.27 256 123.1 256.62 121.94C257.25 120.78 257.95 119.66 258.74 118.59C259.53 117.53 260.36 116.64 261.22 115.92C261.41 116.15 261.49 116.71 261.47 117.61C261.45 118.51 261.34 119.58 261.14 120.81C260.93 122.05 260.64 123.35 260.26 124.72ZM278.39 95.47C277.66 95.39 276.92 95.81 276.17 96.71C275.68 97.6 275.06 98.47 274.31 99.29C273.55 100.12 272.77 100.86 271.97 101.54C271.16 102.21 270.39 102.79 269.65 103.28C268.92 103.77 268.35 104.12 267.93 104.35C267.78 103.15 267.7 101.86 267.68 100.47C267.66 99.08 267.69 97.68 267.76 96.26C267.88 94.23 268.11 92.19 268.47 90.13C268.83 88.07 269.34 86.05 270.02 84.06C270.02 83.01 269.77 82.16 269.29 81.5C268.8 80.85 268.2 80.44 267.51 80.27C266.81 80.1 266.1 80.19 265.37 80.55C264.63 80.91 264 81.55 263.48 82.49C263.03 83.72 262.51 85.11 261.93 86.65C261.34 88.18 260.69 89.75 259.95 91.34C259.22 92.93 258.4 94.48 257.5 95.97C256.6 97.47 255.61 98.8 254.54 99.97C253.47 101.13 252.3 102.04 251.04 102.69C249.78 103.35 248.42 103.64 246.95 103.56C246.28 103.37 245.79 102.87 245.49 102.04C245.18 101.22 245.01 100.19 244.95 98.95C244.89 97.72 244.95 96.36 245.12 94.88C245.29 93.4 245.51 91.93 245.8 90.47C246.08 89.01 246.39 87.62 246.73 86.31C247.06 85 247.38 83.89 247.68 82.99C248.14 81.91 248.14 81 247.68 80.27C247.23 79.54 246.61 79.05 245.82 78.81C245.04 78.56 244.21 78.57 243.34 78.84C242.48 79.1 241.86 79.68 241.48 80.58C240.84 82.11 240.26 83.84 239.73 85.75C239.21 87.66 238.78 89.63 238.46 91.68C238.14 93.72 237.96 95.74 237.93 97.75C237.93 97.88 237.93 98 237.93 98.13C237.11 100.31 236.33 101.95 235.59 103.06C234.63 104.48 233.55 105.1 232.34 104.91C231.82 104.69 231.47 104.16 231.3 103.34C231.13 102.51 231.08 101.5 231.13 100.3C231.19 99.1 231.33 97.75 231.55 96.23C231.78 94.71 232.06 93.14 232.4 91.51C232.74 89.88 233.1 88.24 233.47 86.59C233.85 84.94 234.19 83.39 234.49 81.93C234.45 80.61 234.06 79.61 233.33 78.92C232.6 78.23 231.57 77.96 230.26 78.1C229.36 78.48 228.69 78.97 228.26 79.57C227.82 80.16 227.47 80.93 227.21 81.87C227.06 82.36 226.84 83.33 226.54 84.79C226.23 86.25 225.85 87.93 225.38 89.82C224.91 91.71 224.35 93.69 223.72 95.75C223.08 97.81 222.36 99.68 221.57 101.34C220.78 103.01 219.92 104.35 218.98 105.36C218.04 106.37 217.02 106.78 215.93 106.6C215.33 106.48 214.95 105.87 214.78 104.74C214.61 103.62 214.58 102.23 214.69 100.58C214.8 98.94 215.03 97.13 215.37 95.16C215.71 93.19 216.05 91.33 216.41 89.57C216.77 87.81 217.1 86.25 217.4 84.9C217.7 83.56 217.91 82.66 218.02 82.21C218.02 81.12 217.77 80.25 217.29 79.59C216.8 78.94 216.21 78.53 215.51 78.36C214.81 78.19 214.1 78.28 213.37 78.64C212.63 79 212 79.64 211.48 80.58C211.29 81.59 211.04 82.76 210.74 84.09C210.44 85.42 210.15 86.79 209.87 88.19C209.59 89.6 209.32 90.97 209.08 92.32C208.84 93.67 208.66 94.85 208.54 95.86C208.47 96.65 208.38 97.61 208.29 98.76C208.2 99.9 208.15 101.11 208.15 102.38C208.15 103.66 208.24 104.92 208.43 106.17C208.62 107.43 208.96 108.58 209.45 109.63C209.93 110.68 210.62 111.54 211.51 112.22C212.39 112.89 213.51 113.26 214.86 113.34C216.25 113.41 217.46 113.31 218.5 113.03C219.53 112.75 220.47 112.31 221.32 111.71C222.16 111.11 222.94 110.4 223.63 109.57C224.33 108.75 225.01 107.85 225.69 106.88C226.33 108.3 227.16 109.41 228.17 110.19C229.19 110.98 230.26 111.45 231.39 111.6C232.51 111.75 233.66 111.59 234.83 111.12C235.99 110.65 237.04 109.86 237.98 108.73C238.6 108.04 239.19 107.26 239.74 106.39C239.97 106.8 240.22 107.19 240.49 107.55C241.42 108.75 242.67 109.57 244.25 110.02C245.94 110.47 247.59 110.55 249.21 110.25C250.82 109.95 252.37 109.41 253.83 108.62C255.3 107.83 256.66 106.89 257.92 105.78C259.18 104.68 260.28 103.52 261.22 102.33C261.18 103.19 261.16 104 261.16 104.77C261.16 105.54 261.15 106.37 261.11 107.27C259.23 108.58 257.45 110.16 255.78 111.99C254.11 113.83 252.64 115.78 251.38 117.86C250.12 119.94 249.13 122.05 248.42 124.18C247.7 126.32 247.36 128.32 247.38 130.17C247.39 132.02 247.84 133.64 248.7 135.03C249.56 136.42 250.97 137.41 252.93 138.01C254.96 138.65 256.75 138.66 258.29 138.07C259.83 137.47 261.17 136.47 262.32 135.09C263.47 133.7 264.41 132.02 265.14 130.06C265.87 128.09 266.46 126.04 266.89 123.9C267.32 121.77 267.59 119.67 267.71 117.61C267.82 115.55 267.82 113.71 267.71 112.1C270.94 110.75 273.59 109.05 275.66 106.99C277.73 104.93 279.44 102.76 280.79 100.47C281.2 99.91 281.35 99.23 281.22 98.45C281.08 97.66 280.76 96.99 280.26 96.42C279.75 95.86 279.13 95.55 278.39 95.47Z" id="a66CWhhmjs"></path><path d="M351.91 90.1C352.14 89.15 352.42 88.22 352.76 87.32C353.09 86.42 353.49 85.65 353.94 84.99C354.39 84.34 354.87 83.87 355.38 83.59C355.89 83.31 356.4 83.33 356.93 83.67C357.49 84.01 357.84 84.72 357.97 85.8C358.1 86.89 357.97 88.05 357.58 89.29C357.18 90.53 356.48 91.69 355.46 92.77C354.45 93.86 353.08 94.57 351.35 94.91C351.27 94.39 351.29 93.69 351.4 92.83C351.52 91.97 351.69 91.06 351.91 90.1ZM369.17 95.08C368.6 95.23 368.25 95.62 368.1 96.26C367.8 97.46 367.32 98.68 366.66 99.94C366 101.19 365.19 102.38 364.23 103.51C363.28 104.63 362.19 105.62 360.99 106.49C359.79 107.35 358.53 107.97 357.21 108.34C355.9 108.75 354.81 108.8 353.94 108.48C353.08 108.16 352.39 107.62 351.88 106.85C351.37 106.08 351.01 105.16 350.78 104.07C350.56 102.98 350.43 101.86 350.39 100.7C352.53 100.85 354.44 100.46 356.11 99.54C357.78 98.63 359.2 97.41 360.37 95.89C361.53 94.38 362.42 92.67 363.02 90.78C363.62 88.89 363.96 87 364.04 85.13C364.07 83.37 363.81 81.88 363.25 80.66C362.68 79.45 361.92 78.5 360.96 77.83C360 77.15 358.9 76.76 357.66 76.65C356.42 76.53 355.16 76.7 353.88 77.15C352.34 77.68 351.04 78.53 349.96 79.71C348.89 80.89 348 82.26 347.29 83.81C346.57 85.37 346.01 87.04 345.59 88.84C345.18 90.64 344.88 92.41 344.69 94.15C344.52 95.71 344.43 97.21 344.4 98.65C344.32 98.84 344.24 99.01 344.16 99.21C343.57 100.54 342.89 101.84 342.13 103.11C341.35 104.39 340.5 105.46 339.56 106.32C338.62 107.18 337.64 107.48 336.63 107.22C336.02 107.07 335.7 106.37 335.64 105.14C335.58 103.9 335.65 102.36 335.84 100.53C336.02 98.69 336.24 96.71 336.49 94.57C336.73 92.44 336.85 90.4 336.85 88.45C336.85 86.76 336.53 85.14 335.89 83.59C335.25 82.03 334.38 80.74 333.27 79.71C332.16 78.68 330.87 77.99 329.41 77.66C327.94 77.32 326.36 77.54 324.67 78.33C322.98 79.12 321.63 80.22 320.64 81.65C319.64 83.07 318.73 84.57 317.9 86.14C317.6 84.94 317.16 83.83 316.58 82.8C315.99 81.77 315.28 80.87 314.43 80.1C313.59 79.33 312.64 78.73 311.59 78.3C310.53 77.87 309.42 77.66 308.26 77.66C307.13 77.66 306.09 77.87 305.13 78.3C304.17 78.73 303.3 79.29 302.5 79.96C301.72 80.64 301 81.39 300.36 82.24C299.72 83.08 299.16 83.91 298.67 84.74C298.59 83.76 298.51 82.91 298.42 82.18C298.32 81.45 298.15 80.83 297.91 80.33C297.66 79.82 297.32 79.44 296.87 79.17C296.41 78.91 295.77 78.78 294.95 78.78C294.53 78.78 294.12 78.86 293.71 79.03C293.29 79.2 292.93 79.44 292.61 79.74C292.29 80.04 292.04 80.4 291.87 80.83C291.7 81.26 291.66 81.76 291.73 82.32C291.77 82.73 291.87 83.23 292.04 83.81C292.21 84.39 292.37 85.15 292.52 86.09C292.67 87.02 292.8 88.16 292.89 89.49C292.98 90.82 293.01 92.45 292.97 94.38C292.94 96.31 292.8 98.56 292.55 101.15C292.31 103.73 291.92 106.73 291.39 110.14C291.32 110.92 291.62 111.56 292.3 112.05C292.97 112.53 293.74 112.82 294.61 112.89C295.47 112.97 296.29 112.82 297.06 112.44C297.83 112.07 298.28 111.41 298.39 110.48C298.5 108.71 298.72 106.84 299.04 104.86C299.36 102.87 299.75 100.9 300.22 98.96C300.69 97.01 301.23 95.15 301.83 93.39C302.43 91.63 303.1 90.08 303.83 88.73C304.56 87.38 305.33 86.3 306.11 85.5C306.9 84.69 307.73 84.29 308.6 84.29C309.65 84.29 310.47 84.77 311.05 85.72C311.63 86.68 312.04 87.9 312.29 89.4C312.53 90.9 312.65 92.54 312.63 94.32C312.61 96.1 312.53 97.81 312.4 99.46C312.27 101.11 312.12 102.58 311.95 103.87C311.78 105.16 311.66 106.06 311.59 106.54C311.59 107.4 311.91 108.09 312.57 108.59C313.23 109.1 313.96 109.4 314.77 109.49C315.58 109.59 316.34 109.44 317.06 109.04C317.77 108.65 318.18 107.98 318.3 107.05C318.67 104.35 319.19 101.64 319.85 98.93C320.51 96.21 321.26 93.78 322.1 91.62C322.95 89.47 323.89 87.71 324.92 86.34C325.96 84.97 327.06 84.29 328.22 84.29C328.82 84.29 329.29 84.7 329.6 85.52C329.92 86.35 330.08 87.47 330.08 88.9C330.08 89.95 330 91.02 329.83 92.13C329.66 93.23 329.46 94.38 329.24 95.56C329.01 96.74 328.81 97.94 328.65 99.18C328.48 100.42 328.39 101.71 328.39 103.06C328.39 103.99 328.49 105.08 328.67 106.32C328.86 107.55 329.22 108.72 329.75 109.83C330.27 110.93 331 111.87 331.92 112.64C332.84 113.41 334.01 113.79 335.44 113.79C337.59 113.79 339.48 113.33 341.14 112.41C342.79 111.5 344.21 110.3 345.4 108.82C345.46 108.74 345.51 108.66 345.57 108.58C345.66 108.8 345.74 109.03 345.85 109.24C346.66 110.89 347.76 112.16 349.15 113.06C350.54 113.96 352.17 114.46 354.05 114.55C355.93 114.64 357.98 114.3 360.2 113.51C361.85 112.91 363.29 112.16 364.52 111.26C365.74 110.36 366.84 109.27 367.81 107.97C368.79 106.68 369.68 105.19 370.49 103.51C371.3 101.82 372.12 99.89 372.95 97.72C373.1 97.12 372.96 96.59 372.52 96.12C372.09 95.65 371.57 95.32 370.94 95.13C370.32 94.95 369.73 94.93 369.17 95.08Z" id="a2p8dii96Q"></path><path d="M400.84 92.52C400.52 93.85 400.11 95.23 399.62 96.65C399.13 98.07 398.53 99.36 397.82 100.5C397.1 101.64 396.29 102.55 395.37 103.22C394.44 103.9 393.38 104.18 392.18 104.07C391.58 103.99 391.12 103.58 390.8 102.83C390.48 102.08 390.31 101.13 390.29 99.96C390.27 98.8 390.37 97.53 390.6 96.14C390.82 94.76 391.17 93.4 391.64 92.07C392.11 90.74 392.69 89.51 393.36 88.39C394.04 87.26 394.82 86.39 395.7 85.77C396.59 85.16 397.56 84.87 398.61 84.9C399.66 84.94 400.79 85.47 401.99 86.48C401.92 86.96 401.78 87.76 401.6 88.87C401.41 89.97 401.16 91.19 400.84 92.52ZM419.84 92.97C419.22 93.14 418.78 93.71 418.52 94.68C418.37 95.73 418.03 96.97 417.5 98.39C416.97 99.81 416.33 101.16 415.56 102.44C414.78 103.71 413.9 104.77 412.9 105.61C411.91 106.46 410.85 106.84 409.72 106.76C408.78 106.69 408.12 106.21 407.75 105.33C407.37 104.45 407.17 103.35 407.15 102.01C407.13 100.69 407.27 99.19 407.55 97.52C407.83 95.85 408.17 94.2 408.56 92.55C408.96 90.9 409.36 89.31 409.78 87.8C410.19 86.28 410.53 85 410.79 83.95C411.09 83.01 411 82.22 410.51 81.56C410.02 80.91 409.41 80.44 408.68 80.16C407.94 79.87 407.2 79.8 406.45 79.93C405.69 80.06 405.21 80.46 404.98 81.14C402.76 79.23 400.63 78.2 398.58 78.05C396.53 77.9 394.64 78.35 392.91 79.4C391.18 80.45 389.65 81.96 388.32 83.95C386.98 85.93 385.9 88.1 385.07 90.44C384.24 92.78 383.73 95.17 383.52 97.6C383.31 100.04 383.47 102.26 384 104.26C384.53 106.27 385.46 107.91 386.79 109.18C388.13 110.45 389.94 111.09 392.24 111.09C393.25 111.09 394.23 110.89 395.17 110.47C396.11 110.06 396.97 109.57 397.76 109.01C398.55 108.45 399.25 107.86 399.85 107.24C400.45 106.62 400.92 106.11 401.26 105.7C401.52 107.04 401.95 108.19 402.56 109.12C403.16 110.06 403.84 110.83 404.61 111.43C405.38 112.03 406.19 112.47 407.04 112.75C407.89 113.03 408.7 113.17 409.49 113.17C411.26 113.17 412.91 112.57 414.46 111.37C416 110.17 417.38 108.7 418.6 106.96C419.82 105.22 420.83 103.38 421.62 101.45C422.41 99.52 422.93 97.81 423.2 96.31C423.46 95.75 423.41 95.16 423.06 94.54C422.7 93.92 422.23 93.46 421.65 93.16C421.06 92.86 420.46 92.8 419.84 92.97Z" id="a2q1MeCzAm"></path><path d="M521.67 127.42C520.99 128.3 520.15 128.76 519.13 128.8C518.49 128.83 518.01 128.5 517.67 127.79C517.33 127.07 517.09 126.15 516.96 125.03C516.83 123.91 516.77 122.65 516.79 121.27C516.81 119.88 516.87 118.51 516.96 117.16C517.06 115.82 517.17 114.56 517.3 113.4C517.43 112.24 517.53 111.34 517.61 110.7C518.89 110.85 519.95 111.4 520.8 112.36C521.64 113.31 522.29 114.45 522.74 115.76C523.19 117.07 523.46 118.49 523.53 120C523.61 121.52 523.48 122.91 523.17 124.19C522.85 125.46 522.35 126.54 521.67 127.42ZM501.26 127.42C500.58 128.3 499.73 128.76 498.72 128.8C498.08 128.83 497.59 128.5 497.25 127.79C496.91 127.07 496.68 126.15 496.55 125.03C496.41 123.91 496.36 122.65 496.38 121.27C496.39 119.88 496.45 118.51 496.55 117.16C496.64 115.82 496.75 114.56 496.88 113.4C497.02 112.24 497.12 111.34 497.19 110.7C498.47 110.85 499.54 111.4 500.38 112.36C501.23 113.31 501.88 114.45 502.33 115.76C502.78 117.07 503.04 118.49 503.12 120C503.19 121.52 503.07 122.91 502.75 124.19C502.43 125.46 501.93 126.54 501.26 127.42ZM481.54 94.66C481.41 95.35 481.23 95.79 481.01 95.98C480.59 95.75 480.09 95.17 479.48 94.24C478.88 93.3 478.41 92.24 478.07 91.06C477.74 89.88 477.63 88.72 477.77 87.58C477.9 86.43 478.49 85.55 479.54 84.91C479.95 84.68 480.31 84.77 480.61 85.16C480.91 85.55 481.16 86.12 481.35 86.87C481.53 87.62 481.66 88.49 481.74 89.46C481.82 90.43 481.84 91.37 481.8 92.27C481.76 93.17 481.68 93.96 481.54 94.66ZM474.86 105.08C474.15 105.53 473.41 105.87 472.66 106.09C471.91 106.32 471.23 106.37 470.63 106.26C468.94 105.93 467.64 105.19 466.74 104.07C465.84 102.95 465.26 101.63 465.02 100.11C464.77 98.59 464.8 96.97 465.1 95.25C465.4 93.52 465.91 91.92 466.63 90.44C467.34 88.96 468.21 87.69 469.22 86.62C470.24 85.55 471.34 84.89 472.55 84.63C472.1 86.54 471.95 88.51 472.1 90.56C472.25 92.6 472.74 94.52 473.56 96.31C474.09 97.4 474.72 98.39 475.45 99.29C476.19 100.19 477.08 100.96 478.13 101.6C477.83 102.24 477.39 102.86 476.81 103.48C476.22 104.1 475.57 104.63 474.86 105.08ZM539.72 90.11C539.94 89.15 540.23 88.22 540.56 87.32C540.9 86.42 541.3 85.65 541.75 84.99C542.2 84.34 542.68 83.87 543.19 83.59C543.7 83.31 544.21 83.33 544.74 83.67C545.3 84.01 545.65 84.72 545.78 85.81C545.91 86.89 545.78 88.05 545.39 89.29C544.99 90.53 544.29 91.69 543.27 92.77C542.26 93.86 540.88 94.57 539.16 94.91C539.08 94.39 539.1 93.69 539.21 92.83C539.32 91.97 539.49 91.06 539.72 90.11ZM562.45 90.11C562.67 89.15 562.96 88.22 563.29 87.32C563.63 86.42 564.03 85.65 564.48 84.99C564.93 84.34 565.41 83.87 565.92 83.59C566.43 83.31 566.94 83.33 567.47 83.67C568.03 84.01 568.38 84.72 568.51 85.81C568.64 86.89 568.51 88.05 568.12 89.29C567.72 90.53 567.02 91.69 566 92.77C564.99 93.86 563.61 94.57 561.88 94.91C561.81 94.39 561.83 93.69 561.94 92.83C562.05 91.97 562.22 91.06 562.45 90.11ZM581.48 95.13C580.86 94.95 580.27 94.93 579.71 95.08C579.14 95.23 578.78 95.62 578.63 96.26C578.33 97.46 577.85 98.69 577.2 99.94C576.54 101.2 575.73 102.38 574.77 103.51C573.81 104.63 572.73 105.63 571.53 106.49C570.32 107.35 569.07 107.97 567.75 108.34C566.43 108.75 565.34 108.8 564.48 108.48C563.61 108.16 562.93 107.62 562.42 106.85C561.91 106.08 561.55 105.16 561.32 104.07C561.1 102.98 560.96 101.86 560.93 100.7C563.07 100.85 564.98 100.47 566.65 99.55C568.32 98.63 569.74 97.41 570.91 95.89C572.07 94.38 572.96 92.67 573.56 90.78C574.16 88.89 574.5 87.01 574.57 85.13C574.61 83.37 574.35 81.88 573.78 80.66C573.22 79.45 572.46 78.5 571.5 77.83C570.54 77.15 569.44 76.76 568.2 76.65C566.96 76.53 565.7 76.7 564.42 77.15C562.88 77.68 561.57 78.53 560.5 79.71C559.43 80.89 558.54 82.26 557.82 83.81C557.11 85.37 556.55 87.04 556.13 88.84C555.72 90.64 555.42 92.41 555.23 94.15C555.05 95.84 554.95 97.46 554.93 99.01C554.78 99.32 554.63 99.63 554.47 99.94C553.81 101.2 553 102.38 552.04 103.51C551.08 104.63 550 105.63 548.8 106.49C547.6 107.35 546.34 107.97 545.02 108.34C543.7 108.75 542.61 108.8 541.75 108.48C540.88 108.16 540.2 107.62 539.69 106.85C539.18 106.08 538.82 105.16 538.59 104.07C538.37 102.98 538.23 101.86 538.2 100.7C540.34 100.85 542.25 100.47 543.92 99.55C545.59 98.63 547.01 97.41 548.18 95.89C549.34 94.38 550.23 92.67 550.83 90.78C551.43 88.89 551.77 87.01 551.84 85.13C551.88 83.37 551.62 81.88 551.06 80.66C550.49 79.45 549.73 78.5 548.77 77.83C547.81 77.15 546.71 76.76 545.47 76.65C544.23 76.53 542.97 76.7 541.69 77.15C540.15 77.68 538.84 78.53 537.77 79.71C536.7 80.89 535.81 82.26 535.09 83.81C534.38 85.37 533.82 87.04 533.4 88.84C532.99 90.64 532.69 92.41 532.5 94.15C532.39 95.13 532.32 96.09 532.27 97.02C531.91 97.33 531.55 97.64 531.17 97.94C529.88 98.99 528.51 99.94 527.09 100.78C525.66 101.63 524.17 102.32 522.63 102.86C521.09 103.41 519.51 103.73 517.89 103.85C518.24 100.11 521.04 70.26 521.39 66.53C521.62 65.74 521.5 65.05 521.05 64.45C520.6 63.85 520.02 63.44 519.3 63.22C518.59 62.99 517.83 63.01 517.02 63.27C516.21 63.54 515.54 64.13 515.02 65.07C514.75 66.49 514.48 68.44 514.2 70.91C513.92 73.39 513.63 76.08 513.35 79.01C513.07 81.93 512.79 84.95 512.51 88.05C512.22 91.16 511.98 94.07 511.77 96.76C511.76 96.88 511.76 96.99 511.75 97.11C511.42 97.39 511.1 97.67 510.76 97.94C509.46 98.99 508.1 99.94 506.67 100.78C505.24 101.63 503.76 102.32 502.21 102.86C500.67 103.41 499.09 103.73 497.48 103.85C497.83 100.11 500.62 70.26 500.97 66.53C501.2 65.74 501.09 65.05 500.64 64.45C500.18 63.85 499.6 63.44 498.89 63.22C498.17 62.99 497.41 63.01 496.6 63.27C495.79 63.54 495.13 64.13 494.6 65.07C494.34 66.49 494.06 68.44 493.78 70.91C493.5 73.39 493.22 76.08 492.94 79.01C492.65 81.93 492.37 84.95 492.09 88.05C491.81 91.16 491.56 94.07 491.36 96.76C491.35 96.82 491.35 96.87 491.34 96.92C490.75 97.2 490.11 97.43 489.41 97.64C488.7 97.84 487.89 97.96 486.99 98C487.14 97.33 487.26 96.58 487.35 95.75C487.45 94.93 487.52 94.07 487.58 93.17C487.64 92.27 487.65 91.37 487.64 90.47C487.62 89.57 487.57 88.75 487.49 88C487.31 86.39 486.96 84.86 486.45 83.42C485.94 81.98 485.26 80.77 484.39 79.79C483.53 78.82 482.45 78.16 481.15 77.83C479.85 77.49 478.34 77.6 476.61 78.16C474.05 77.83 471.75 78.06 469.7 78.87C467.65 79.67 465.87 80.84 464.37 82.38C462.87 83.92 461.63 85.72 460.68 87.8C459.72 89.88 459.08 92.02 458.76 94.21C458.62 95.14 458.56 96.06 458.54 96.98C457.96 98.17 457.32 99.21 456.62 100.08C455.62 101.32 454.59 102.33 453.51 103.11C452.44 103.9 451.38 104.5 450.33 104.91C449.27 105.33 448.33 105.61 447.51 105.76C446.53 105.94 445.59 105.96 444.69 105.81C443.79 105.66 442.96 105.23 442.21 104.52C441.6 104 441.14 103.15 440.82 101.99C440.5 100.83 440.32 99.51 440.26 98.03C440.2 96.55 440.26 95 440.43 93.39C440.6 91.78 440.89 90.26 441.3 88.81C441.72 87.37 442.24 86.08 442.88 84.94C443.52 83.79 444.27 82.98 445.14 82.49C445.63 82.57 445.93 82.86 446.04 83.36C446.15 83.87 446.18 84.47 446.12 85.16C446.07 85.85 445.98 86.57 445.87 87.3C445.76 88.03 445.7 88.64 445.7 89.12C445.89 90.13 446.26 90.92 446.8 91.48C447.35 92.04 447.96 92.37 448.64 92.47C449.31 92.56 449.98 92.4 450.64 91.99C451.29 91.58 451.83 90.92 452.25 90.02C452.28 90.06 452.34 90.08 452.41 90.08C452.49 89.36 453.13 83.65 453.2 82.94C453.43 81.97 453.28 81.11 452.75 80.36C452.23 79.61 451.53 79.18 450.67 79.06C449.58 77.49 448.1 76.66 446.24 76.56C444.38 76.47 442.47 77.08 440.51 78.39C439.31 79.25 438.25 80.44 437.33 81.96C436.4 83.48 435.65 85.16 435.07 87.01C434.49 88.87 434.07 90.83 433.83 92.89C433.59 94.95 433.54 96.95 433.69 98.9C433.84 100.85 434.19 102.68 434.73 104.41C435.28 106.13 436.04 107.57 437.02 108.73C437.84 109.75 438.78 110.49 439.84 110.95C440.89 111.42 441.99 111.71 443.14 111.83C444.28 111.94 445.42 111.89 446.55 111.68C447.68 111.48 448.75 111.19 449.76 110.81C451.08 110.33 452.43 109.71 453.82 108.96C455.21 108.21 456.55 107.31 457.83 106.26C458.5 105.71 459.15 105.11 459.77 104.46C460.06 105.17 460.38 105.85 460.76 106.49C461.78 108.17 463.15 109.54 464.88 110.59C466.61 111.64 468.73 112.14 471.25 112.11C473.96 112.07 476.46 111.39 478.75 110.06C481.05 108.73 482.93 106.77 484.39 104.18C486.59 104.18 488.75 103.82 490.87 103.11C490.86 103.33 490.84 103.57 490.82 103.79C490.67 105.78 490.6 107.12 490.6 107.84C490.56 109.07 490.47 110.6 490.34 112.41C490.21 114.23 490.13 116.14 490.09 118.15C490.05 120.15 490.13 122.17 490.31 124.22C490.5 126.26 490.9 128.11 491.5 129.78C492.1 131.45 492.95 132.86 494.06 134.02C495.17 135.18 496.63 135.88 498.44 136.1C500.35 136.36 502.01 136.03 503.4 135.09C504.79 134.15 505.92 132.87 506.78 131.24C507.65 129.61 508.26 127.73 508.62 125.59C508.97 123.46 509.08 121.31 508.93 119.16C508.77 117 508.38 114.97 507.74 113.06C507.1 111.15 506.22 109.58 505.09 108.34C505.77 108.15 506.57 107.8 507.52 107.27C508.45 106.75 509.42 106.16 510.42 105.5C510.67 105.34 510.91 105.17 511.15 105.01C511.06 106.33 511.01 107.28 511.01 107.84C510.98 109.07 510.89 110.6 510.76 112.41C510.63 114.23 510.54 116.14 510.51 118.15C510.47 120.15 510.54 122.17 510.73 124.22C510.92 126.26 511.31 128.11 511.91 129.78C512.52 131.45 513.37 132.86 514.48 134.02C515.59 135.18 517.05 135.88 518.85 136.1C520.77 136.36 522.42 136.03 523.81 135.09C525.21 134.15 526.33 132.87 527.2 131.24C528.06 129.61 528.67 127.73 529.03 125.59C529.39 123.46 529.49 121.31 529.34 119.16C529.19 117 528.8 114.97 528.16 113.06C527.52 111.15 526.64 109.58 525.51 108.34C526.18 108.15 526.99 107.8 527.93 107.27C528.87 106.75 529.84 106.16 530.84 105.5C531.35 105.16 531.87 104.81 532.38 104.45C532.58 106.28 532.99 107.89 533.66 109.24C534.46 110.89 535.56 112.16 536.96 113.06C538.35 113.96 539.98 114.46 541.86 114.55C543.74 114.64 545.79 114.3 548.01 113.51C549.66 112.91 551.1 112.16 552.32 111.26C553.55 110.36 554.65 109.27 555.62 107.98C555.68 107.9 555.73 107.82 555.79 107.74C555.96 108.27 556.16 108.77 556.39 109.24C557.19 110.89 558.29 112.16 559.68 113.06C561.08 113.96 562.71 114.46 564.59 114.55C566.47 114.64 568.52 114.3 570.74 113.51C572.39 112.91 573.83 112.16 575.05 111.26C576.27 110.36 577.37 109.27 578.35 107.98C579.33 106.68 580.22 105.19 581.03 103.51C581.84 101.82 582.66 99.89 583.49 97.72C583.64 97.12 583.49 96.59 583.06 96.12C582.63 95.65 582.1 95.32 581.48 95.13Z" id="a3kJbC3BRr"></path></defs><g><g><g><use xlink:href="#e3FHBqhWgp" opacity="1" fill="#ffffff" fill-opacity="1"></use><g><use xlink:href="#e3FHBqhWgp" opacity="1" fill-opacity="0" stroke="#000000" stroke-width="1" stroke-opacity="0"></use></g></g><g><use xlink:href="#b7YVrOK48m" opacity="1" fill="#0d0c22" fill-opacity="1"></use><g><use xlink:href="#b7YVrOK48m" opacity="1" fill-opacity="0" stroke="#000000" stroke-width="1" stroke-opacity="0"></use></g></g><g><use xlink:href="#b2svGX0Ax" opacity="1" fill="#0d0c22" fill-opacity="1"></use><g><use xlink:href="#b2svGX0Ax" opacity="1" fill-opacity="0" stroke="#000000" stroke-width="1" stroke-opacity="0"></use></g></g><g><use xlink:href="#a6BU9Um8lq" opacity="1" fill="#0d0c22" fill-opacity="1"></use><g><use xlink:href="#a6BU9Um8lq" opacity="1" fill-opacity="0" stroke="#000000" stroke-width="1" stroke-opacity="0"></use></g></g><g><use xlink:href="#b1WjoGhTdl" opacity="1" fill="#0d0c22" fill-opacity="1"></use><g><use xlink:href="#b1WjoGhTdl" opacity="1" fill-opacity="0" stroke="#000000" stroke-width="1" stroke-opacity="0"></use></g></g><g><use xlink:href="#bFaa7Oupe" opacity="1" fill="#0d0c22" fill-opacity="1"></use><g><use xlink:href="#bFaa7Oupe" opacity="1" fill-opacity="0" stroke="#000000" stroke-width="1" stroke-opacity="0"></use></g></g><g><use xlink:href="#d3V5RBbFig" opacity="1" fill="#0d0c22" fill-opacity="1"></use><g><use xlink:href="#d3V5RBbFig" opacity="1" fill-opacity="0" stroke="#000000" stroke-width="1" stroke-opacity="0"></use></g></g><g><use xlink:href="#bb8liTGAO" opacity="1" fill="#0d0c22" fill-opacity="1"></use><g><use xlink:href="#bb8liTGAO" opacity="1" fill-opacity="0" stroke="#000000" stroke-width="1" stroke-opacity="0"></use></g></g><g><use xlink:href="#crqQWP2Tc" opacity="1" fill="#0d0c22" fill-opacity="1"></use><g><use xlink:href="#crqQWP2Tc" opacity="1" fill-opacity="0" stroke="#000000" stroke-width="1" stroke-opacity="0"></use></g></g><g><use xlink:href="#g5qpiRUnm" opacity="1" fill="#0d0c22" fill-opacity="1"></use><g><use xlink:href="#g5qpiRUnm" opacity="1" fill-opacity="0" stroke="#000000" stroke-width="1" stroke-opacity="0"></use></g></g><g><use xlink:href="#e1aBa6Qyx3" opacity="1" fill="#0d0c22" fill-opacity="1"></use><g><use xlink:href="#e1aBa6Qyx3" opacity="1" fill-opacity="0" stroke="#000000" stroke-width="1" stroke-opacity="0"></use></g></g><g><use xlink:href="#akPfOrZoc" opacity="1" fill="#0d0c22" fill-opacity="1"></use><g><use xlink:href="#akPfOrZoc" opacity="1" fill-opacity="0" stroke="#000000" stroke-width="1" stroke-opacity="0"></use></g></g><g><use xlink:href="#cdAFX1qk4" opacity="1" fill="#ffdd00" fill-opacity="1"></use><g><use xlink:href="#cdAFX1qk4" opacity="1" fill-opacity="0" stroke="#000000" stroke-width="1" stroke-opacity="0"></use></g></g><g><use xlink:href="#bB1WuSue6" opacity="1" fill="#0d0c22" fill-opacity="1"></use><g><use xlink:href="#bB1WuSue6" opacity="1" fill-opacity="0" stroke="#000000" stroke-width="1" stroke-opacity="0"></use></g></g><g><use xlink:href="#aPkHOaJ6f" opacity="1" fill="#0d0c22" fill-opacity="1"></use><g><use xlink:href="#aPkHOaJ6f" opacity="1" fill-opacity="0" stroke="#000000" stroke-width="1" stroke-opacity="0"></use></g></g><g><use xlink:href="#a3RbAAL806" opacity="1" fill="#0d0c23" fill-opacity="1"></use><g><use xlink:href="#a3RbAAL806" opacity="1" fill-opacity="0" stroke="#000000" stroke-width="1" stroke-opacity="0"></use></g></g><g><use xlink:href="#a66CWhhmjs" opacity="1" fill="#0d0c23" fill-opacity="1"></use><g><use xlink:href="#a66CWhhmjs" opacity="1" fill-opacity="0" stroke="#000000" stroke-width="1" stroke-opacity="0"></use></g></g><g><use xlink:href="#a2p8dii96Q" opacity="1" fill="#0d0c23" fill-opacity="1"></use><g><use xlink:href="#a2p8dii96Q" opacity="1" fill-opacity="0" stroke="#000000" stroke-width="1" stroke-opacity="0"></use></g></g><g><use xlink:href="#a2q1MeCzAm" opacity="1" fill="#0d0c23" fill-opacity="1"></use><g><use xlink:href="#a2q1MeCzAm" opacity="1" fill-opacity="0" stroke="#000000" stroke-width="1" stroke-opacity="0"></use></g></g><g><use xlink:href="#a3kJbC3BRr" opacity="1" fill="#0d0c23" fill-opacity="1"></use><g><use xlink:href="#a3kJbC3BRr" opacity="1" fill-opacity="0" stroke="#000000" stroke-width="1" stroke-opacity="0"></use></g></g></g></g></svg>